<svg xmlns="http://www.w3.org/2000/svg" viewBox="0 0 113.16 68.95"><defs><style>.cls-1{fill:#075480;}</style></defs><g id="Layer_2" data-name="Layer 2"><g id="Layer_1-2" data-name="Layer 1"><path class="cls-1" d="M.76,1.51S11.05-1.17,29,.61c22.58,2.24,25.7,7.63,21.78,12.67-4.5,5.78-7.95,7.52-6.85,12.54S56.2,34.64,69,38c13.52,3.58,36.16,5.11,44.17,3.56C109.9,48.75,101.43,60.48,83.51,69,76.59,67.21,47.69,58.38,31,48.87c-14.19-8.09-20.22-17-16.92-22.29,5.07-8.12,11.75-8,15.56-12.62,5.83-7.08-8.55-8-29.66-6.59C.43,5.09.76,1.51.76,1.51Z"/></g></g></svg>