<svg xmlns="http://www.w3.org/2000/svg" viewBox="0 0 204.83 170.8"><defs><style>.cls-1{fill:#0a75b3;}.cls-2{fill:#bebb75;}.cls-3{fill:#9dc0de;}.cls-4{fill:#075480;}.cls-5,.cls-7,.cls-8{fill:none;}.cls-5,.cls-8{stroke:#075480;stroke-miterlimit:10;}.cls-5{stroke-width:2px;}.cls-6{fill:#e2dfc1;}.cls-9{fill:#044367;}.cls-10{font-size:16px;font-family:Montserrat-Regular, Montserrat;}.cls-10,.cls-16{fill:#bfbb50;}.cls-11{letter-spacing:-0.02em;}.cls-12{letter-spacing:0em;}.cls-13{letter-spacing:0em;}.cls-14{letter-spacing:-0.02em;}.cls-15{letter-spacing:0em;}</style></defs><g id="Layer_2" data-name="Layer 2"><g id="Layer_1-2" data-name="Layer 1"><rect class="cls-1" x="45.41" y="9.59" width="113.02" height="115.25"/><circle class="cls-2" cx="101.63" cy="66.91" r="60.43"/><path class="cls-3" d="M41.48,61.2s-5.65,30.73,24.43,54.51c27.15,21.47,59,7.17,59,7.17S64.06,103.41,68.56,86.66s10.37-14.33,8.62-20.08C74.46,57.65,41.48,61.2,41.48,61.2Z" transform="translate(0 -0.04)"/><path class="cls-4" d="M42.13,55.44s10.29-2.67,28.22-.89c22.58,2.23,25.7,7.62,21.78,12.66-4.5,5.78-7.95,7.53-6.85,12.55,1.06,4.86,12.29,8.82,25.08,12.2,13.52,3.57,36.16,5.11,44.17,3.56-3.26,7.16-11.73,18.89-29.65,27.36-6.92-1.73-35.82-10.57-52.49-20.07-14.19-8.09-20.21-17-16.92-22.3,5.07-8.11,11.75-8,15.56-12.61,5.83-7.08-8.55-8-29.66-6.59C41.81,59,42.13,55.44,42.13,55.44Z" transform="translate(0 -0.04)"/><circle class="cls-5" cx="102.45" cy="66.64" r="60.43"/><path class="cls-6" d="M134.18,51.81c-7.58-5.61-1-4.59-4.12-11.42L126,38.64c1,2.1,1.41,5.6-.34,7.29a8.7,8.7,0,0,0-10.12-1.07c-1.59-3.07-5.67-1.19-8.08-.54-.7-.19-.94-1.64-1.51-2.07a5.62,5.62,0,0,0-5.4-1.11L98.18,45c4.13-2.28,4.14,3.05,7.18,3.61,2.24,1.57-4,5.72-1.18,8.73,5,4.52.47,6.37,1.75,10,5.89,14.6-7.45,13.7-13,10.93-.14.72-1-.8-.4,1.73,3.79,2.53,5.27,3.17,11.17,4.22,4.62,4.93,26.83,8,28.89,5.27.93-1.25,1.47-.27,1.47-.27-18.57-2.61-15.9-5.2-14.9-21.13-.11-1.58-3.54-4.82-4.5-6.26-3-4.25-4.67-13.37,1.25-13.25,3.38.23,5-2.75,9,2.88,2,1.32,3.61,0,5.62,3" transform="translate(0 -0.04)"/><path class="cls-6" d="M98.54,42.67s.17,7.57-3.58,7.73-9.45-1.79-9.45-1.79a6.56,6.56,0,0,1-8.63.82c-5-3.26-2.77-7.74.81-9a3.53,3.53,0,0,0-.49-1.8,15,15,0,0,1-3.9,2c-2.12.65-9-.25-10.27-5.3-2.6.82-6.68,1.14-6.19-5.21s5.54-4.23,5.54-4.23S60.18,16,67,15.71s4.16,0,4.16,0,1.87-2.85,3.91-3.26c-1.27-1.26-2.2-5.7,1.38-7S81,6.58,81,6.58s4-3.74,6.11-2.44,3.66,2.61,3.83,3.42a7,7,0,0,1,3.42.16S96.75,2,100.5,2.84A15.56,15.56,0,0,1,106,4.92S109.21-.29,113.2.56a12.3,12.3,0,0,1,6.11,3.34c2,.16,5-1.14,7.74,4.15,1.47-2.44.26-2,2.28-3.09,2.2-1.14,6.19-1.39,8.06,3.66,1.87-.88,4.57-1.47,6.68,1a6.66,6.66,0,0,1,1.14,5.78s5.3-1.3,7.58,2,1.46,4.15,1.46,4.15,3.1-1.59,7.25,2c2.77,2.37,2.12,8.8,2.12,8.8a5.33,5.33,0,0,1,4,5.62c-.16,4.72-1.3,8.39-5.7,8,.73,2.85-.24,6-3.26,6.6a16.65,16.65,0,0,0-4.56,1.79s1.22-.65,5.78,1.14,3.29,8.2.09,8.88a10.57,10.57,0,0,1-5.62-.73s-3.59,4.23-6.28,3.82c-4.14-.62-5.84-2.55-5.84-2.55s-6.94,2-8.16-3.72c-1,.08-1.31.57-2.94-1.22s-3-5.86,2.36-6.35a7.58,7.58,0,0,1,3.59-6.68c.73-.49-.46,1.12-3.1-2.77a6.19,6.19,0,0,1-.89-5s-.49,1.06-2.61,1.06c-3.52,0-2.28-.41-4.07-1.47-6,6.36-12.22,2.61-13-.16-1.55.65-2.61,3.1-6.19,1.79s-3.1-3.58-3.1-3.58a27.25,27.25,0,0,1-3.66,2C99.44,42.91,98.54,42.67,98.54,42.67Z" transform="translate(0 -0.04)"/><path class="cls-7" d="M105.65,36.2c.51-11.93-20.34-22.9-21.86-12.59-3.46-1.2-9.27-1.35-9.93,3.23a2.84,2.84,0,0,1-1.2,2.74C67.9,33.8,72.91,38.84,78,38Z" transform="translate(0 -0.04)"/><path class="cls-7" d="M74.83,12.85c-2.74-3.12-.44-6.23,1.5-7.2,2.6-1.3,4.07-1.14,5,1.06.75-2.36,3-2.56,5.3-2.36A5.23,5.23,0,0,1,91.2,9.8q-3.81,9-7.63,17.93c-1.35,0-11.11-5.47-12.65-7.93-.52-.85.61-4,1.9-5.76.73-1,1.44-.76,2-1.19" transform="translate(0 -0.04)"/><path class="cls-7" d="M71.33,15.56c4.37-3.53,11-.77,10,7.7,2.13.25,4.11-1.12,5.51.91s3.84,6.36,2.74,8.42-5.62,3.86-7.34,2.22c.09,4-6.73,5-6.1,4-1.85,2.88-10.64,2-12.38-4.12l-2.23.86c-6.38,1.54-6.21-11.17.49-10.42a7.6,7.6,0,0,1,8.69-9.77" transform="translate(0 -0.04)"/><path class="cls-4" d="M116.64,90.53a3.24,3.24,0,0,1,.07-.44,3.33,3.33,0,0,1,.16-.51,4.46,4.46,0,0,1,.48-.91,5,5,0,0,1,1.6-1.41.49.49,0,0,0,.18-.68.5.5,0,0,0-.68-.18,5.34,5.34,0,0,0-2.81,4.13.5.5,0,0,0,.5.5.51.51,0,0,0,.5-.5Z" transform="translate(0 -0.04)"/><path class="cls-4" d="M130.13,89a6,6,0,0,1,.69,3.39.51.51,0,0,0,.86.35,4.87,4.87,0,0,0,1.24-4.08l-.92.38a4.72,4.72,0,0,1,.69,3.66.5.5,0,1,0,1,.27,5.74,5.74,0,0,0-.78-4.43.51.51,0,0,0-.92.38,3.84,3.84,0,0,1-1,3.11l.85.36a7,7,0,0,0-.83-3.9.5.5,0,0,0-.86.51Z" transform="translate(0 -0.04)"/><path class="cls-4" d="M134.53,88.78c-.15-.12-.05,0,0,0s-.06-.11,0,0l.07.12s.08.18.05.1,0,.07,0,.09l.06.17c0,.13.07.26.1.39.07.29.12.58.17.87l.06.41v.11c0,.13,0-.11,0,0l0,.25c.06.52.11,1,.2,1.56a1.81,1.81,0,0,0,.13.47.55.55,0,0,0,.86.14,1.13,1.13,0,0,0,.26-.59c.08-.36.13-.73.18-1.1l-.23.3a4.53,4.53,0,0,0,1.95-3.62l-.85.36a3.32,3.32,0,0,1,.88,3.68.51.51,0,0,0,.18.69.5.5,0,0,0,.68-.18,4.35,4.35,0,0,0-1-4.9.51.51,0,0,0-.86.35,3.21,3.21,0,0,1-.46,1.65,3.82,3.82,0,0,1-.55.72c-.24.25-.64.44-.69.8s-.1.71-.18,1.06a.65.65,0,0,0,0,.13s0,0,0,.06.05-.1,0-.06.07-.07.09-.09a.48.48,0,0,1,.68.11c0-.06,0,.16,0,0l0-.11a2.33,2.33,0,0,1,0-.28.88.88,0,0,1,0-.16c0-.12,0,.1,0,0s0-.08,0-.12,0-.29,0-.44c-.09-.71-.17-1.42-.31-2.12a2.82,2.82,0,0,0-.84-1.79.5.5,0,0,0-.68.18.52.52,0,0,0,.18.69Z" transform="translate(0 -0.04)"/><path class="cls-4" d="M139.25,92.57a4.41,4.41,0,0,1,1.8-3.71.5.5,0,0,0-.71-.71,5.31,5.31,0,0,0-2.09,4.42.51.51,0,0,0,.5.5.5.5,0,0,0,.5-.5Z" transform="translate(0 -0.04)"/><path class="cls-4" d="M98.71,45.25a1.7,1.7,0,0,1,2.06-.14,7.23,7.23,0,0,1,1.41,1.75,6.37,6.37,0,0,0,1.61,1.78c.45.31,1.3.28,1.29.94a4.47,4.47,0,0,1-.84,1.92A18,18,0,0,0,103,53.88a4,4,0,0,0-.24,2.41,5.87,5.87,0,0,0,2,2.5A5.91,5.91,0,0,1,106.26,61a3.09,3.09,0,0,1-.08,1.73c-.22.81-.5,1.61-.68,2.43a15.94,15.94,0,0,0-.29,1.68,1.75,1.75,0,0,0,0,.79c.14.42.36.83.52,1.24,1.18,3,2.46,7.9-1.15,9.85a9.92,9.92,0,0,1-5.35.83,27.74,27.74,0,0,1-6.8-1.43c-.62-.2-.88.77-.27,1a30.71,30.71,0,0,0,6.49,1.42,12.57,12.57,0,0,0,5.45-.49,5.58,5.58,0,0,0,3.34-3,9.38,9.38,0,0,0,0-6,18.91,18.91,0,0,0-.59-1.9,6,6,0,0,1-.72-2.15,15.55,15.55,0,0,1,.69-3.15c.46-1.51.73-2.82-.2-4.22a9.55,9.55,0,0,0-.93-1.17c-.51-.55-1.15-1-1.62-1.6a2.43,2.43,0,0,1-.25-2.47,14,14,0,0,1,1.28-2.46,5.38,5.38,0,0,0,.91-2.25,1.54,1.54,0,0,0-.26-1c-.29-.43-.64-.45-1.1-.63a4.74,4.74,0,0,1-1.86-1.93,6,6,0,0,0-1.8-2,2.75,2.75,0,0,0-2.85.29.5.5,0,0,0,.51.86Z" transform="translate(0 -0.04)"/><path class="cls-4" d="M134.3,88.68a84.09,84.09,0,0,1-8.74-1.93,13.14,13.14,0,0,1-4.8-2.25c-2.42-2.08-2.12-5.62-1.94-8.5.07-1.21.18-2.41.27-3.62.06-.65.11-1.31.16-2s.18-1.55.16-2.31c0-1.2-1.11-2.35-1.82-3.22-.88-1.08-1.89-2.07-2.7-3.21a15.14,15.14,0,0,1-2.66-7.24c-.19-2,.08-4.73,2.44-5.25a13.63,13.63,0,0,1,1.81-.09,10.21,10.21,0,0,0,1.55-.25,5.45,5.45,0,0,1,2.74-.22,4,4,0,0,1,1.57.93,9,9,0,0,1,.87.88c.37.42.67.94,1.06,1.35.9.94,2.48.79,3.62,1.23a4.43,4.43,0,0,1,2,1.73c.36.53,1.23,0,.86-.5a5.84,5.84,0,0,0-1.94-1.92,6.14,6.14,0,0,0-1.91-.59A3.68,3.68,0,0,1,125,51c-.36-.35-.64-.84-1-1.22a10.54,10.54,0,0,0-.93-1,4.68,4.68,0,0,0-3.27-1.33c-1,.05-2,.43-3,.56-1.21.14-2.35-.07-3.46.58a4.21,4.21,0,0,0-1.84,2.54c-.72,2.56,0,5.52.94,7.92a14.59,14.59,0,0,0,1.86,3.37c.92,1.2,2,2.28,2.93,3.48a8,8,0,0,1,1.11,1.72,4.93,4.93,0,0,1,0,2.06c-.1,1.4-.22,2.8-.33,4.2a38.41,38.41,0,0,0-.19,6.25,7.52,7.52,0,0,0,1.47,4.17,9.39,9.39,0,0,0,4.12,2.7,47.52,47.52,0,0,0,8,2.08l2.68.5c.63.12.9-.84.27-1Z" transform="translate(0 -0.04)"/><path class="cls-4" d="M100.15,41.26a6.14,6.14,0,0,0,2,.05,2.71,2.71,0,0,1,1.52.09,4.76,4.76,0,0,1,1.79,1.8c.37.57.8,1.35,1.49,1.59s1.42-.27,1.94-.43a18.17,18.17,0,0,1,2.2-.56c1.49-.27,3-.1,3.76,1.34a.49.49,0,0,0,.68.18,8.28,8.28,0,0,1,9.52,1,.51.51,0,0,0,.7,0c2-2,1.5-5.53.42-7.9-.26-.58-1.13-.07-.86.51.89,1.94,1.39,5-.26,6.68h.7A9.29,9.29,0,0,0,115,44.46l.68.18c-1.71-3.15-5.57-1.68-8.22-.9-.38.11-.43,0-.71-.37s-.46-.71-.71-1.06a5.64,5.64,0,0,0-1.89-1.78c-1.2-.59-2.47,0-3.72-.23-.63-.12-.9.84-.27,1Z" transform="translate(0 -0.04)"/><path class="cls-4" d="M129.36,40.67a7,7,0,0,1,.53,5.15,4.62,4.62,0,0,0-.3,1.59,3.24,3.24,0,0,0,.77,1.89,16.35,16.35,0,0,0,3.29,3c.52.38,1-.48.51-.87a15.53,15.53,0,0,1-2.94-2.61,2.51,2.51,0,0,1-.64-1.53,6.08,6.08,0,0,1,.35-1.43,6.43,6.43,0,0,0,.28-2.09,9.71,9.71,0,0,0-1-3.58c-.27-.59-1.13-.08-.86.5Z" transform="translate(0 -0.04)"/><path class="cls-8" d="M108.35,55.72a6.27,6.27,0,0,0,3.26-.28" transform="translate(0 -0.04)"/><path class="cls-8" d="M108.67,58.05a6.39,6.39,0,0,0,3.58-.22" transform="translate(0 -0.04)"/><path class="cls-8" d="M109.27,60.37A12.38,12.38,0,0,0,112.7,60" transform="translate(0 -0.04)"/><path class="cls-8" d="M113.7,66.88c1.29.29,2.71,1,4.75.29" transform="translate(0 -0.04)"/><path class="cls-8" d="M113.78,69.1a5.86,5.86,0,0,0,4.83.19" transform="translate(0 -0.04)"/><path class="cls-8" d="M114.16,71.6a5,5,0,0,0,4.21.3" transform="translate(0 -0.04)"/><path class="cls-4" d="M87.88,76.69l.17.32c0-.09,0,0,0,0l.05.17c0,.1.06.2.08.3l0,.17c0-.12,0,0,0,.06a1.82,1.82,0,0,1,0,.33v.13s0,.21,0,.08a3.53,3.53,0,0,1-.16.64.5.5,0,1,0,1,.26,3.58,3.58,0,0,0-.28-3,.51.51,0,0,0-.69-.18.51.51,0,0,0-.18.68Z" transform="translate(0 -0.04)"/><path class="cls-4" d="M90,76.72a6,6,0,0,1-.48,3.42.51.51,0,0,0,.74.57,4.83,4.83,0,0,0,2.46-3.33h-1a4.77,4.77,0,0,1-.59,3.68.5.5,0,0,0,.86.5,5.74,5.74,0,0,0,.69-4.44.5.5,0,0,0-1,0,3.85,3.85,0,0,1-2,2.72l.74.57a7.06,7.06,0,0,0,.48-4,.5.5,0,0,0-1,.27Z" transform="translate(0 -0.04)"/><path class="cls-4" d="M101,82.48a1.91,1.91,0,0,1,.11.35s0,.09,0,.09a.31.31,0,0,1,0,.1,1.48,1.48,0,0,1,0,.21s0,.08,0,.13,0-.06,0,0,0,.14,0,.21a4.07,4.07,0,0,1-.13.5c-.18.62-.45,1.22-.64,1.83a.5.5,0,1,0,1,.27c.2-.66.48-1.28.67-1.94a3.13,3.13,0,0,0,0-2.05.5.5,0,1,0-1,.27Z" transform="translate(0 -0.04)"/><path class="cls-4" d="M103.6,86.92A4.47,4.47,0,0,0,106,83.74l-.83.22a3.33,3.33,0,0,1,.18,3.79c-.34.54.52,1,.86.5a4.36,4.36,0,0,0-.33-5,.5.5,0,0,0-.84.22,3.53,3.53,0,0,1-2,2.57c-.57.3-.07,1.16.5.87Z" transform="translate(0 -0.04)"/><path class="cls-4" d="M107.66,88.18c0-.12,0-.26.08-.44a4.91,4.91,0,0,1,.15-.51,4.54,4.54,0,0,1,.49-.91,4.74,4.74,0,0,1,1.6-1.41.51.51,0,0,0,.18-.69.51.51,0,0,0-.68-.18,5.41,5.41,0,0,0-2.82,4.14.51.51,0,0,0,.5.5.5.5,0,0,0,.5-.5Z" transform="translate(0 -0.04)"/><path class="cls-4" d="M111.36,85.55a3.11,3.11,0,0,1,.81,3,.5.5,0,0,0,.73.56A4.48,4.48,0,0,0,115.32,86l-.83.22a3.33,3.33,0,0,1,.18,3.78c-.34.55.52,1.05.86.51a4.36,4.36,0,0,0-.34-5,.5.5,0,0,0-.83.22,3.56,3.56,0,0,1-2,2.58l.74.56a4.11,4.11,0,0,0-1.06-4c-.45-.47-1.16.24-.71.7Z" transform="translate(0 -0.04)"/><path class="cls-4" d="M117.71,88.83c.06.11.12.22.17.33,0-.1,0,0,0,0a1.15,1.15,0,0,1,.06.17c0,.1.06.2.08.3l0,.17c0-.12,0,0,0,.06a1.82,1.82,0,0,1,0,.33v.13s0,.21,0,.08a3.53,3.53,0,0,1-.16.64.5.5,0,0,0,.35.61.5.5,0,0,0,.61-.34,3.6,3.6,0,0,0-.28-3,.51.51,0,0,0-.69-.18.5.5,0,0,0-.18.68Z" transform="translate(0 -0.04)"/><path class="cls-4" d="M120,87.23a6.09,6.09,0,0,1-.48,3.42.49.49,0,0,0,.18.53.5.5,0,0,0,.55,0,4.82,4.82,0,0,0,2.47-3.33h-1a4.77,4.77,0,0,1-.59,3.68.5.5,0,0,0,.86.5,5.74,5.74,0,0,0,.69-4.44c-.14-.44-.86-.51-1,0a3.89,3.89,0,0,1-2,2.73l.73.56a6.87,6.87,0,0,0,.48-4,.5.5,0,1,0-1,.26Z" transform="translate(0 -0.04)"/><path class="cls-4" d="M122.48,89.35a3.09,3.09,0,0,1,1.39,2.84.49.49,0,0,0,.31.45.53.53,0,0,0,.55-.1,4.48,4.48,0,0,0,1.7-3.62l-.86.36a3.35,3.35,0,0,1,1,3.75.5.5,0,0,0,.34.62.52.52,0,0,0,.62-.35,4.33,4.33,0,0,0-1.29-4.73c-.3-.26-.88-.11-.85.35A3.54,3.54,0,0,1,124,91.83l.85.36a4.09,4.09,0,0,0-1.88-3.7.5.5,0,1,0-.51.86Z" transform="translate(0 -0.04)"/><path class="cls-4" d="M128.9,92.39A3.24,3.24,0,0,1,129,92a5,5,0,0,1,.16-.51,4.08,4.08,0,0,1,.49-.91,4.82,4.82,0,0,1,1.59-1.41.49.49,0,0,0,.18-.68.5.5,0,0,0-.68-.18,5.39,5.39,0,0,0-2.81,4.13.5.5,0,0,0,.5.5.51.51,0,0,0,.5-.5Z" transform="translate(0 -0.04)"/><path class="cls-4" d="M97.71,80.37c-1.46.34-2.23,2.12-2.47,3.45l.92-.12a1.35,1.35,0,0,1-.14-.22l0-.09,0-.1a4,4,0,0,1-.18-.68,10.37,10.37,0,0,1-.2-1.57,14.41,14.41,0,0,1,0-1.61,3.11,3.11,0,0,1,.16-1.05.5.5,0,0,0-.62-.61,3.79,3.79,0,0,0-1.93,2.56,7.78,7.78,0,0,0-.49,3.24.51.51,0,0,0,.5.5.5.5,0,0,0,.5-.5,6.88,6.88,0,0,1,.39-2.77,6.29,6.29,0,0,1,.59-1.36A2.19,2.19,0,0,1,95,79a1.13,1.13,0,0,1,.34-.23l-.62-.61a4.73,4.73,0,0,0-.19,1.25,12.63,12.63,0,0,0,0,1.74,12.14,12.14,0,0,0,.23,1.8,3.32,3.32,0,0,0,.49,1.29c.23.31.83.35.92-.12a5.13,5.13,0,0,1,.58-1.66A2,2,0,0,1,98,81.34c.63-.15.37-1.11-.26-1Z" transform="translate(0 -0.04)"/><path class="cls-4" d="M98.67,85c0-.17-.1-.35-.14-.53s0-.15,0-.23c0,.14,0-.08,0-.12v-.21a.34.34,0,0,0,0-.1c0-.11,0,.11,0,0s.07-.27.12-.4c0,.08,0,0,0,0l0-.11.12-.22a5.72,5.72,0,0,1,.32-.48c.3-.44.63-.86,1-1.28a.49.49,0,0,0-.17-.68.52.52,0,0,0-.69.18,9.86,9.86,0,0,0-1.57,2.37,3.19,3.19,0,0,0,.08,2.09.5.5,0,0,0,1-.27Z" transform="translate(0 -0.04)"/><path class="cls-4" d="M102.36,24.11c.32-3.77-2.4-6.48-5.82-7.49a12.11,12.11,0,0,0-10.49,1.55,7.31,7.31,0,0,0-2.88,5.14l.93-.25c-2.38-4.18-8.24-2.26-10.23,1.25A6.09,6.09,0,0,0,73.1,28l.14-.35a5.55,5.55,0,0,0-1.66,6,5.33,5.33,0,0,0,4.19,4c.63.08.63-.92,0-1-1.65-.21-2.81-1.8-3.25-3.28a4.62,4.62,0,0,1,1.24-4.85c.38-.35.31-.58.29-1.07a5.06,5.06,0,0,1,.15-1.34,5.59,5.59,0,0,1,1-2.07,6.5,6.5,0,0,1,3.87-2.33,3.8,3.8,0,0,1,4.14,1.83.5.5,0,0,0,.93-.26c.73-6.9,11.24-7.95,15.52-3.84a5.6,5.6,0,0,1,1.67,4.64c-.06.64,1,.63,1,0Z" transform="translate(0 -0.04)"/><path class="cls-4" d="M74.83,21.22a4.22,4.22,0,0,1-2.65-4.85c.23-1.65,1.3-3.65,3.23-3.46.55.05.69-.9.13-1-2-.3-1.11-3.45-.49-4.59A3.22,3.22,0,0,1,80.7,7a.49.49,0,0,0,.86,0c1.89-3.86,7.42-2.74,9.06.75.27.59,1.13.08.86-.5C89.53,3.05,82.9,2,80.7,6.46h.86a4.12,4.12,0,0,0-4.18-1.93,4.06,4.06,0,0,0-3.13,2.2c-1,1.68-1.84,5.75,1,6.16l.14-1c-2.44-.24-3.92,2.22-4.21,4.33a5.2,5.2,0,0,0,3.36,5.94c.62.2.88-.77.27-1Z" transform="translate(0 -0.04)"/><path class="cls-4" d="M97.07,40.85a6.83,6.83,0,0,1,.39,5.95A5.07,5.07,0,0,1,91.74,50a16.66,16.66,0,0,1-6.85-3c-.54-.36-1,.51-.51.87,3.06,2,7.59,4.51,11.27,2.55,2.3-1.23,3.32-4,3.28-6.45a6.63,6.63,0,0,0-1-3.63c-.36-.53-1.22,0-.86.51Z" transform="translate(0 -0.04)"/><path class="cls-4" d="M85.94,19c-2.49-4.88,2.7-10.5,7.5-10.94.63-.06.64-1.06,0-1-5.58.51-11.22,6.84-8.37,12.44.3.57,1.16.07.87-.5Z" transform="translate(0 -0.04)"/><path class="cls-4" d="M94.81,9.41c-.41-5.67,7-7.15,10.81-4.35a.51.51,0,0,0,.69-.18c2.32-4.83,9.75-5.25,12.45-.54a.53.53,0,0,0,.57.23c5.39-1,9.85,5.21,7.15,10a.5.5,0,0,0,.87.5,7.66,7.66,0,0,0-.59-8.29,7.85,7.85,0,0,0-7.7-3.18l.57.23c-3-5.31-11.53-5-14.19.54l.69-.18C101.72,1,93.34,3,93.81,9.41c0,.64,1,.64,1,0Z" transform="translate(0 -0.04)"/><path class="cls-4" d="M128.13,11.28a4.32,4.32,0,0,1,3.34,1.53,7.7,7.7,0,0,1,1.75,4.76c0,.64,1,.64,1,0a8.83,8.83,0,0,0-2-5.47,5.34,5.34,0,0,0-4.05-1.82.5.5,0,0,0,0,1Z" transform="translate(0 -0.04)"/><path class="cls-4" d="M132.64,23c-1.25-5.5,6.36-10,10.79-6.94.53.37,1-.5.51-.86-4.09-2.85-10.11-.16-11.92,4.15a6.39,6.39,0,0,0-.34,3.91c.14.63,1.1.36,1-.26Z" transform="translate(0 -0.04)"/><path class="cls-4" d="M141.42,19c2.5-4,10.52-5,12.08.31a.5.5,0,0,0,1-.26c-1.42-4.83-7.41-5.3-11.22-3.1a7.7,7.7,0,0,0-2.69,2.54c-.34.55.52,1,.86.51Z" transform="translate(0 -0.04)"/><path class="cls-4" d="M154.19,22.11a7.63,7.63,0,0,1,8,3,7.09,7.09,0,0,1,1.38,4.32,8.35,8.35,0,0,1-2.09,5.08c-.41.49.3,1.2.71.71,2-2.41,3-5.53,1.93-8.57a9,9,0,0,0-5.64-5.41,8,8,0,0,0-4.56-.13.5.5,0,0,0,.26,1Z" transform="translate(0 -0.04)"/><path class="cls-4" d="M163.91,32.68c2.63,1,3.57,3.65,3.41,6.25-.14,2.18-1,5-2.93,6.27a2.24,2.24,0,0,1-2.76-.14c-.45-.34-1,.43-.61.78a2.66,2.66,0,0,1,1.19,2.24,3.65,3.65,0,0,1-1.09,2.19,6,6,0,0,1-5.24,1.95,3.69,3.69,0,0,1-2.56-2.1c-.29-.58-1.15-.07-.87.5A4.92,4.92,0,0,0,158.63,53c2-.65,4.25-2.34,4.55-4.6a3.56,3.56,0,0,0-1.45-3.24l-.61.79c2.29,1.73,4.67-.11,5.83-2.21a10.29,10.29,0,0,0,.8-8.59,6,6,0,0,0-3.57-3.4c-.61-.23-.87.74-.27,1Z" transform="translate(0 -0.04)"/><path class="cls-4" d="M132.34,39.82c-.34,3.27,1.89,5.88,4.62,7.36.56.31,1.07-.56.5-.86a8.66,8.66,0,0,1-3.29-2.89,5.61,5.61,0,0,1-.83-3.61.5.5,0,0,0-.5-.5.51.51,0,0,0-.5.5Z" transform="translate(0 -0.04)"/><path class="cls-4" d="M144.76,47.81a6.49,6.49,0,0,0-6-1.87,7.12,7.12,0,0,0-5.57,7.45l.5-.5A4.66,4.66,0,0,0,130.05,54,3.83,3.83,0,0,0,129,57a4.64,4.64,0,0,0,4.73,4.31,9.44,9.44,0,0,0,5.6-2.58c.49-.41-.22-1.12-.71-.71-1.86,1.56-5,3.36-7.27,1.53a3.43,3.43,0,0,1-.81-4.55,3.53,3.53,0,0,1,3.15-1.09.5.5,0,0,0,.5-.5,6.21,6.21,0,0,1,3.31-5.94,5.5,5.5,0,0,1,6.55,1.06.5.5,0,0,0,.71-.7Z" transform="translate(0 -0.04)"/><path class="cls-4" d="M155.29,54.68c2.73,0,6.14,1,6.89,4a4.24,4.24,0,0,1-2.81,5,7.3,7.3,0,0,1-5-.46.47.47,0,0,0-.49.13c-1.47,1.56-3.32,3.13-5.58,3.2s-4.08-1.26-5.65-2.63a.51.51,0,0,0-.61-.07c-2.69,1.46-6.58.5-7.51-2.63a.5.5,0,0,0-1,.26c1.12,3.77,5.71,5,9,3.23l-.61-.08c1.77,1.54,3.92,3,6.36,2.92s4.63-1.73,6.29-3.5l-.49.13c2.84,1.16,6.47,1.15,8.33-1.67a5.33,5.33,0,0,0-1.2-7,9.62,9.62,0,0,0-6-1.83.5.5,0,0,0,0,1Z" transform="translate(0 -0.04)"/><path class="cls-4" d="M142.6,51.19a6.79,6.79,0,0,1,7.63-.71,6.58,6.58,0,0,1,3.6,6.7c-.09.63.91.63,1,0,.66-5.08-4.25-9.18-9.14-8.47a7.54,7.54,0,0,0-3.8,1.77c-.49.43.22,1.13.71.71Z" transform="translate(0 -0.04)"/><path class="cls-4" d="M104,28.66c1.57-1.34,2.45-3.27,3.5-5,.93-1.55,2.13-3.07,4.12-3a10,10,0,0,1,4.66,1.87c.55.35,1-.52.51-.86-2.13-1.35-5.07-2.86-7.54-1.45-1.8,1-2.72,3.13-3.73,4.84A11,11,0,0,1,103.24,28c-.49.42.22,1.12.71.71Z" transform="translate(0 -0.04)"/><path class="cls-4" d="M117,22.93a10.47,10.47,0,0,1,8.66-.72A6.21,6.21,0,0,1,130,28.5c0,.65,1,.64,1,0,.37-5.62-5.47-8.41-10.37-7.81a11.22,11.22,0,0,0-4.21,1.37.5.5,0,0,0,.51.87Z" transform="translate(0 -0.04)"/><path class="cls-4" d="M132.11,28a8,8,0,0,1,3.62,3.83,5.25,5.25,0,0,1-.09,3.84,6,6,0,0,1-10.58,1.16c-.39-.51-1.1.2-.71.71a7.47,7.47,0,0,0,4.41,2.89,6.81,6.81,0,0,0,4.49-.75A6.9,6.9,0,0,0,136.84,32a8.63,8.63,0,0,0-4.23-4.89.5.5,0,0,0-.5.86Z" transform="translate(0 -0.04)"/><path class="cls-4" d="M125.82,38.61c-3.32,4-9.29,3.43-12.69-.17-.44-.47-1.15.24-.7.71,3.74,4,10.44,4.6,14.09.17.41-.49-.29-1.21-.7-.71Z" transform="translate(0 -0.04)"/><path class="cls-4" d="M85.67,48.53a6.83,6.83,0,0,1-8.21.68C75.67,48,74,45.66,74.76,43.44a4.63,4.63,0,0,1,3.37-2.59.5.5,0,0,0,.3-.73c-1.21-1.81-.27-3.73,1.23-5S83.2,32.86,85,33.37a2.32,2.32,0,0,1,1.63,2.09c0,.37.55.73.85.35,1.67-2.11,4.44-2.46,6.9-1.75,2.21.64,4.62,2.22,5.17,4.6a4.47,4.47,0,0,1-1.13,3.86c-.41.49.3,1.2.71.71a5.73,5.73,0,0,0,1.51-4A5.86,5.86,0,0,0,99,35.67a9.62,9.62,0,0,0-8-2.89,6.38,6.38,0,0,0-4.23,2.32l.85.36A3.45,3.45,0,0,0,86,32.69a4.73,4.73,0,0,0-3.21-.28,8,8,0,0,0-5.64,4.41,4,4,0,0,0,.42,3.8l.3-.73a5.91,5.91,0,0,0-3.8,2.64,4.73,4.73,0,0,0-.17,3.81,7.86,7.86,0,0,0,6.8,5,8.33,8.33,0,0,0,5.67-2.07c.5-.41-.21-1.11-.7-.71Z" transform="translate(0 -0.04)"/><path class="cls-4" d="M128.23,7.13c1.83-4,8.13-2.35,8.7,1.67a.5.5,0,0,0,.73.3,4.67,4.67,0,0,1,5.63.47c1.09.94,2.32,2.75,1.51,4.22-.31.56.55,1.07.86.5,1.05-1.88-.2-4.17-1.67-5.43a5.68,5.68,0,0,0-6.83-.63l.73.3c-.69-4.85-8.35-6.61-10.52-1.91-.27.58.59,1.09.86.51Z" transform="translate(0 -0.04)"/><path class="cls-4" d="M61.71,25.34l.08.65.93-.25c-1.25-2.46-1-6.15,1.22-8,1.85-1.55,4.82-1.94,7.15-1.62.63.09.9-.88.26-1-2.73-.37-6.08.07-8.22,2a7.09,7.09,0,0,0-2.07,4.22,8.17,8.17,0,0,0,.8,4.93c.21.42,1,.24.93-.26l-.08-.65c-.08-.63-1.08-.64-1,0Z" transform="translate(0 -0.04)"/><path class="cls-4" d="M63.4,34.75c-1.34.39-3,.88-4.29.11a4.1,4.1,0,0,1-1.62-3.22,6.49,6.49,0,0,1,.77-4.08A3.3,3.3,0,0,1,61.61,26c.63.13.9-.83.27-1-2.75-.6-4.9,1.78-5.31,4.3-.38,2.31,0,5.58,2.46,6.62,1.49.63,3.16.21,4.63-.22a.5.5,0,0,0-.26-1Z" transform="translate(0 -0.04)"/><path class="cls-4" d="M63.08,35.41c.48,3,3.22,4.82,6,5.4a9,9,0,0,0,8.36-2.25c.46-.45-.25-1.16-.71-.71a8,8,0,0,1-7.39,2c-2.47-.52-4.87-2-5.29-4.71-.1-.63-1.07-.36-1,.27Z" transform="translate(0 -0.04)"/><path class="cls-8" d="M104.34,25.61S98.48,25.44,99,32c.33,4.49,5.21,4.89,5.21,4.89.37,2.52,2,3.13,4.72,3.26,3.42.16,5.87-3.26,5.87-3.26" transform="translate(0 -0.04)"/><path class="cls-8" d="M99.8,38.68s2.86.23,3.77-1.82" transform="translate(0 -0.04)"/><path class="cls-9" d="M48.91,138.15H45.5V136h9.28v2.11H51.37v9.09H48.91Z" transform="translate(0 -0.04)"/><path class="cls-9" d="M59.16,138.82a4.15,4.15,0,0,1,1.67-.32v2.31l-.54,0a2.09,2.09,0,0,0-1.59.6,2.48,2.48,0,0,0-.58,1.8v4.06H55.75v-8.61H58v1.14A2.75,2.75,0,0,1,59.16,138.82Z" transform="translate(0 -0.04)"/><path class="cls-9" d="M68.41,139.46a3.73,3.73,0,0,1,1,2.87v4.91H67.21v-1.07a2.6,2.6,0,0,1-2.49,1.2,3.64,3.64,0,0,1-1.64-.34,2.39,2.39,0,0,1-1-.93,2.43,2.43,0,0,1-.37-1.34,2.3,2.3,0,0,1,.86-1.89,4.2,4.2,0,0,1,2.65-.69h1.89a1.64,1.64,0,0,0-.47-1.25,2,2,0,0,0-1.42-.44,4,4,0,0,0-1.28.21,3.33,3.33,0,0,0-1.07.59L62,139.54a5,5,0,0,1,1.6-.76,6.51,6.51,0,0,1,1.92-.28A4.1,4.1,0,0,1,68.41,139.46Zm-2,5.93a1.64,1.64,0,0,0,.67-.87v-.88H65.43c-1,0-1.46.34-1.46,1a.92.92,0,0,0,.36.76,1.59,1.59,0,0,0,1,.28A2,2,0,0,0,66.39,145.39Z" transform="translate(0 -0.04)"/><path class="cls-9" d="M79.54,138.63l-3.45,8.61H73.64l-3.44-8.61h2.45l2.27,5.86,2.34-5.86Z" transform="translate(0 -0.04)"/><path class="cls-9" d="M80.63,137a1.4,1.4,0,0,1,0-2,1.44,1.44,0,0,1,1.06-.4,1.52,1.52,0,0,1,1.07.38,1.28,1.28,0,0,1,.41,1,1.39,1.39,0,0,1-.41,1,1.42,1.42,0,0,1-1.07.41A1.44,1.44,0,0,1,80.63,137Zm-.12,1.6h2.37v8.61H80.51Z" transform="translate(0 -0.04)"/><path class="cls-9" d="M85.84,147.1a5,5,0,0,1-1.55-.66l.79-1.79a5.28,5.28,0,0,0,1.33.6,5.39,5.39,0,0,0,1.52.23q1.5,0,1.5-.78a.55.55,0,0,0-.41-.53,5.3,5.3,0,0,0-1.26-.27,12.06,12.06,0,0,1-1.66-.37,2.62,2.62,0,0,1-1.13-.74,2.15,2.15,0,0,1-.48-1.5,2.42,2.42,0,0,1,.45-1.45,2.84,2.84,0,0,1,1.31-1,5.22,5.22,0,0,1,2-.36,7.76,7.76,0,0,1,1.72.2,4.67,4.67,0,0,1,1.42.56L90.63,141a4.58,4.58,0,0,0-2.35-.64,2.26,2.26,0,0,0-1.14.23.65.65,0,0,0-.38.57.55.55,0,0,0,.41.56,6.9,6.9,0,0,0,1.3.31,13.11,13.11,0,0,1,1.65.37,2.6,2.6,0,0,1,1.11.73,2.14,2.14,0,0,1,.47,1.47,2.39,2.39,0,0,1-.46,1.43,2.87,2.87,0,0,1-1.33,1,5.6,5.6,0,0,1-2.07.35A7.48,7.48,0,0,1,85.84,147.1Z" transform="translate(0 -0.04)"/><path class="cls-9" d="M97.6,147a3.81,3.81,0,0,1-1.48-1.21l1.37-1.73a2.42,2.42,0,0,0,2,1.23c1,0,1.51-.61,1.51-1.85v-5.33H97.23V136h6.19v7.26a4.37,4.37,0,0,1-1,3.1,3.74,3.74,0,0,1-2.86,1A4.66,4.66,0,0,1,97.6,147Z" transform="translate(0 -0.04)"/><path class="cls-9" d="M105.42,146.92a1.57,1.57,0,0,1-.42-1.12,1.5,1.5,0,0,1,.42-1.11,1.45,1.45,0,0,1,1-.43,1.43,1.43,0,0,1,1,.43,1.5,1.5,0,0,1,.42,1.11,1.57,1.57,0,0,1-.42,1.12,1.38,1.38,0,0,1-1,.45A1.39,1.39,0,0,1,105.42,146.92Z" transform="translate(0 -0.04)"/><path class="cls-9" d="M122.26,145.16v2.08H114V136h8v2.08h-5.59v2.43h4.94v2h-4.94v2.59Z" transform="translate(0 -0.04)"/><path class="cls-9" d="M124.06,135.37h2.37v11.87h-2.37Z" transform="translate(0 -0.04)"/><path class="cls-9" d="M128.63,135.37H131v11.87h-2.37Z" transform="translate(0 -0.04)"/><path class="cls-9" d="M133.33,137a1.4,1.4,0,0,1,0-2,1.44,1.44,0,0,1,1.06-.4,1.54,1.54,0,0,1,1.07.38,1.28,1.28,0,0,1,.41,1,1.39,1.39,0,0,1-.41,1,1.6,1.6,0,0,1-2.13,0Zm-.12,1.6h2.37v8.61h-2.37Z" transform="translate(0 -0.04)"/><path class="cls-9" d="M139.35,146.8a4.12,4.12,0,0,1-1.6-1.58,4.79,4.79,0,0,1,0-4.57,4.19,4.19,0,0,1,1.6-1.58,4.72,4.72,0,0,1,2.32-.57,4.65,4.65,0,0,1,2.31.57,4.19,4.19,0,0,1,1.6,1.58,4.79,4.79,0,0,1,0,4.57,4.12,4.12,0,0,1-1.6,1.58,4.65,4.65,0,0,1-2.31.57A4.72,4.72,0,0,1,139.35,146.8Zm3.82-2.13a2.85,2.85,0,0,0,0-3.47,2.06,2.06,0,0,0-3,0,2.85,2.85,0,0,0,0,3.47,2.06,2.06,0,0,0,3,0Z" transform="translate(0 -0.04)"/><path class="cls-9" d="M153,146.82a2.22,2.22,0,0,1-.86.41,4.13,4.13,0,0,1-1.07.14,2.76,2.76,0,0,1-3.05-3.09v-3.54h-1.26v-1.92H148v-2.09h2.37v2.09h2v1.92h-2v3.51a1.26,1.26,0,0,0,.26.84,1,1,0,0,0,.76.29,1.42,1.42,0,0,0,1-.32Z" transform="translate(0 -0.04)"/><path class="cls-9" d="M159.44,146.82a2.22,2.22,0,0,1-.86.41,4.13,4.13,0,0,1-1.07.14,2.76,2.76,0,0,1-3-3.09v-3.54h-1.27v-1.92h1.27v-2.09h2.37v2.09h2v1.92h-2v3.51a1.26,1.26,0,0,0,.26.84,1,1,0,0,0,.76.29,1.42,1.42,0,0,0,1-.32Z" transform="translate(0 -0.04)"/><text class="cls-10" transform="translate(0 166.6) scale(0.95 1)">Intuiti<tspan class="cls-11" x="48.03" y="0">v</tspan><tspan x="56.46" y="0">e H</tspan><tspan class="cls-11" x="83.33" y="0">e</tspan><tspan class="cls-12" x="92.75" y="0">a</tspan><tspan class="cls-13" x="102.19" y="0">l</tspan><tspan class="cls-12" x="106.53" y="0">th </tspan><tspan class="cls-14" x="128.05" y="0">C</tspan><tspan x="139.18" y="0">onsu</tspan><tspan class="cls-15" x="178.64" y="0">l</tspan><tspan x="182.97" y="0">ti</tspan><tspan class="cls-15" x="193.77" y="0">n</tspan><tspan class="cls-12" x="204.64" y="0">g</tspan></text><path class="cls-16" d="M1.86,155.42H3v11.2H1.86Z" transform="translate(0 -0.04)"/><path class="cls-16" d="M12.69,159.06a3.7,3.7,0,0,1,.88,2.68v4.88H12.5v-4.77a2.86,2.86,0,0,0-.63-2,2.27,2.27,0,0,0-1.78-.69,2.64,2.64,0,0,0-2,.81,3.15,3.15,0,0,0-.75,2.23v4.42H6.22V158.2h1v1.55a3,3,0,0,1,1.22-1.19,3.82,3.82,0,0,1,1.82-.42A3.18,3.18,0,0,1,12.69,159.06Z" transform="translate(0 -0.04)"/><path class="cls-16" d="M20.72,166.1a2,2,0,0,1-.75.45,2.94,2.94,0,0,1-.94.15,2.29,2.29,0,0,1-1.73-.64,2.51,2.51,0,0,1-.61-1.81v-5.09H15.26v-1h1.43v-1.84h1.08v1.84H20.2v1H17.77v5a1.63,1.63,0,0,0,.36,1.15,1.32,1.32,0,0,0,1,.39,2,2,0,0,0,.65-.11,1.61,1.61,0,0,0,.54-.32Z" transform="translate(0 -0.04)"/><path class="cls-16" d="M29.88,158.2v8.42h-1v-1.54a3,3,0,0,1-1.17,1.19,3.69,3.69,0,0,1-4.17-.49,3.73,3.73,0,0,1-.91-2.7V158.2h1.08V163a2.87,2.87,0,0,0,.63,2,2.25,2.25,0,0,0,1.77.69,2.56,2.56,0,0,0,2-.81,3.23,3.23,0,0,0,.73-2.24V158.2Z" transform="translate(0 -0.04)"/><path class="cls-16" d="M32.89,156.12a.85.85,0,0,1,0-1.14.76.76,0,0,1,.57-.24A.74.74,0,0,1,34,155a.76.76,0,0,1,.23.55.84.84,0,0,1-.23.59.74.74,0,0,1-.56.24A.76.76,0,0,1,32.89,156.12Zm0,2.08H34v8.42H32.91Z" transform="translate(0 -0.04)"/><path class="cls-16" d="M41.21,166.1a2.18,2.18,0,0,1-.75.45,3,3,0,0,1-.94.15,2.29,2.29,0,0,1-1.73-.64,2.51,2.51,0,0,1-.61-1.81v-5.09H35.75v-1h1.43v-1.84h1.08v1.84h2.43v1H38.26v5a1.63,1.63,0,0,0,.36,1.15,1.3,1.3,0,0,0,1,.39,2.06,2.06,0,0,0,.65-.11,1.61,1.61,0,0,0,.54-.32Z" transform="translate(0 -0.04)"/><path class="cls-16" d="M43.15,156.12a.85.85,0,0,1,0-1.14.76.76,0,0,1,.57-.24.74.74,0,0,1,.56.24.76.76,0,0,1,.23.55.84.84,0,0,1-.23.59.74.74,0,0,1-.56.24A.76.76,0,0,1,43.15,156.12Zm0,2.08h1.08v8.42H43.17Z" transform="translate(0 -0.04)"/><path class="cls-16" d="M54,158.2l-3.56,8.42H49.31l-3.54-8.42h1.12l3,7.17,3-7.17Z" transform="translate(0 -0.04)"/><path class="cls-16" d="M62.23,162.76H55.54a3.05,3.05,0,0,0,1,2.12,3.09,3.09,0,0,0,2.19.81,3.29,3.29,0,0,0,1.37-.28,3,3,0,0,0,1.07-.83l.61.74a3.35,3.35,0,0,1-1.33,1,4.18,4.18,0,0,1-1.75.36,4.24,4.24,0,0,1-2.18-.56A3.82,3.82,0,0,1,55,164.62a4.6,4.6,0,0,1-.53-2.21A4.71,4.71,0,0,1,55,160.2a3.81,3.81,0,0,1,1.4-1.52,3.78,3.78,0,0,1,5.37,1.51,4.71,4.71,0,0,1,.5,2.22Zm-5.8-2.87a3.12,3.12,0,0,0-.89,2h5.67a3.12,3.12,0,0,0-.89-2,2.82,2.82,0,0,0-3.89,0Z" transform="translate(0 -0.04)"/><path class="cls-16" d="M77.55,155.42v11.2H76.44v-5.17H69.78v5.17H68.66v-11.2h1.12v5h6.66v-5Z" transform="translate(0 -0.04)"/><path class="cls-16" d="M87.75,162.76H81.06a3.05,3.05,0,0,0,1,2.12,3.09,3.09,0,0,0,2.19.81,3.29,3.29,0,0,0,1.37-.28,3.07,3.07,0,0,0,1.08-.83l.6.74a3.35,3.35,0,0,1-1.33,1,4.18,4.18,0,0,1-1.75.36,4.24,4.24,0,0,1-2.18-.56,3.82,3.82,0,0,1-1.49-1.52,4.6,4.6,0,0,1-.53-2.21,4.71,4.71,0,0,1,.51-2.21,3.81,3.81,0,0,1,1.4-1.52,3.78,3.78,0,0,1,5.37,1.51,4.71,4.71,0,0,1,.5,2.22ZM82,159.89a3.12,3.12,0,0,0-.89,2h5.67a3.12,3.12,0,0,0-.89-2,2.82,2.82,0,0,0-3.89,0Z" transform="translate(0 -0.04)"/><path class="cls-16" d="M94.94,159a3.27,3.27,0,0,1,.83,2.44v5.22h-1V165.3a2.54,2.54,0,0,1-1.07,1,3.65,3.65,0,0,1-1.68.37,3.23,3.23,0,0,1-2.13-.67,2.4,2.4,0,0,1,0-3.51,3.45,3.45,0,0,1,2.35-.66H94.7v-.51a2.24,2.24,0,0,0-.58-1.65,2.32,2.32,0,0,0-1.69-.57,4.24,4.24,0,0,0-1.46.26,3.61,3.61,0,0,0-1.2.73l-.49-.85a4.47,4.47,0,0,1,1.46-.84,5.66,5.66,0,0,1,1.8-.29A3.28,3.28,0,0,1,94.94,159Zm-1.22,6.4a2.64,2.64,0,0,0,1-1.27v-1.38H92.19c-1.37,0-2,.5-2,1.51a1.4,1.4,0,0,0,.53,1.16,2.34,2.34,0,0,0,1.49.42A2.75,2.75,0,0,0,93.72,165.36Z" transform="translate(0 -0.04)"/><path class="cls-16" d="M98.71,154.74h1.08v11.88H98.71Z" transform="translate(0 -0.04)"/><path class="cls-16" d="M107,166.1a2.18,2.18,0,0,1-.75.45,3,3,0,0,1-.94.15,2.29,2.29,0,0,1-1.73-.64,2.51,2.51,0,0,1-.61-1.81v-5.09h-1.43v-1H103v-1.84h1.08v1.84h2.43v1h-2.43v5a1.63,1.63,0,0,0,.36,1.15,1.3,1.3,0,0,0,1,.39,2.06,2.06,0,0,0,.65-.11,1.61,1.61,0,0,0,.54-.32Z" transform="translate(0 -0.04)"/><path class="cls-16" d="M115.47,159.06a3.7,3.7,0,0,1,.89,2.68v4.88h-1.08v-4.77a2.86,2.86,0,0,0-.63-2,2.26,2.26,0,0,0-1.77-.69,2.65,2.65,0,0,0-2,.81,3.15,3.15,0,0,0-.75,2.23v4.42H109V154.74h1.08v4.93a2.93,2.93,0,0,1,1.21-1.13,3.8,3.8,0,0,1,1.78-.4A3.16,3.16,0,0,1,115.47,159.06Z" transform="translate(0 -0.04)"/><path class="cls-16" d="M125.27,166a5.21,5.21,0,0,1-2-2,6.28,6.28,0,0,1,0-5.84,5.23,5.23,0,0,1,2-2,5.62,5.62,0,0,1,2.86-.74,5.54,5.54,0,0,1,2.18.42A4.52,4.52,0,0,1,132,157l-.72.75a4.14,4.14,0,0,0-3.14-1.32,4.49,4.49,0,0,0-2.3.6,4.33,4.33,0,0,0-1.62,1.67,5.11,5.11,0,0,0,0,4.73,4.33,4.33,0,0,0,1.62,1.67,4.49,4.49,0,0,0,2.3.61,4.06,4.06,0,0,0,3.14-1.35l.72.76a4.66,4.66,0,0,1-1.71,1.22,5.71,5.71,0,0,1-2.2.42A5.6,5.6,0,0,1,125.27,166Z" transform="translate(0 -0.04)"/><path class="cls-16" d="M135,166.14a3.82,3.82,0,0,1-1.46-1.52,4.79,4.79,0,0,1,0-4.42,3.82,3.82,0,0,1,1.46-1.52,4.28,4.28,0,0,1,4.16,0,3.79,3.79,0,0,1,1.45,1.52,4.87,4.87,0,0,1,0,4.42,3.79,3.79,0,0,1-1.45,1.52,4.14,4.14,0,0,1-4.16,0Zm3.61-.86a2.75,2.75,0,0,0,1-1.16,4,4,0,0,0,0-3.42,2.75,2.75,0,0,0-1-1.16,2.9,2.9,0,0,0-4.12,1.16,3.94,3.94,0,0,0,0,3.42,2.84,2.84,0,0,0,1.06,1.16,3.06,3.06,0,0,0,3.06,0Z" transform="translate(0 -0.04)"/><path class="cls-16" d="M149.85,159.06a3.7,3.7,0,0,1,.89,2.68v4.88h-1.08v-4.77a2.9,2.9,0,0,0-.62-2,2.28,2.28,0,0,0-1.78-.69,2.67,2.67,0,0,0-2,.81,3.15,3.15,0,0,0-.75,2.23v4.42h-1.08V158.2h1v1.55a3.13,3.13,0,0,1,1.23-1.19,3.78,3.78,0,0,1,1.81-.42A3.15,3.15,0,0,1,149.85,159.06Z" transform="translate(0 -0.04)"/><path class="cls-16" d="M154,166.4a4,4,0,0,1-1.39-.74l.49-.9a4,4,0,0,0,1.26.68,4.68,4.68,0,0,0,1.58.26,2.9,2.9,0,0,0,1.62-.36,1.14,1.14,0,0,0,.52-1,.92.92,0,0,0-.29-.73,1.77,1.77,0,0,0-.73-.4,8.89,8.89,0,0,0-1.17-.26,14,14,0,0,1-1.56-.39,2.35,2.35,0,0,1-1-.69,1.92,1.92,0,0,1-.42-1.32,2.11,2.11,0,0,1,.84-1.73,3.58,3.58,0,0,1,2.32-.67,5.9,5.9,0,0,1,1.55.21,4.48,4.48,0,0,1,1.28.57l-.47.91a3.91,3.91,0,0,0-2.36-.72,2.6,2.6,0,0,0-1.56.39,1.17,1.17,0,0,0-.52,1,1,1,0,0,0,.3.77,1.77,1.77,0,0,0,.73.43c.3.09.7.18,1.22.28a11.3,11.3,0,0,1,1.53.38,2.22,2.22,0,0,1,1,.66,1.82,1.82,0,0,1,.41,1.28,2.07,2.07,0,0,1-.87,1.75,4,4,0,0,1-2.43.65A5.8,5.8,0,0,1,154,166.4Z" transform="translate(0 -0.04)"/><path class="cls-16" d="M168.31,158.2v8.42h-1v-1.54a3,3,0,0,1-1.17,1.19,3.28,3.28,0,0,1-1.7.43,3.32,3.32,0,0,1-2.47-.92,3.73,3.73,0,0,1-.9-2.7V158.2h1.08V163a2.86,2.86,0,0,0,.62,2,2.28,2.28,0,0,0,1.78.69,2.55,2.55,0,0,0,2-.81,3.18,3.18,0,0,0,.73-2.24V158.2Z" transform="translate(0 -0.04)"/><path class="cls-16" d="M171.33,154.74h1.08v11.88h-1.08Z" transform="translate(0 -0.04)"/><path class="cls-16" d="M179.66,166.1a2,2,0,0,1-.75.45,2.92,2.92,0,0,1-.93.15,2.33,2.33,0,0,1-1.74-.64,2.55,2.55,0,0,1-.61-1.81v-5.09h-1.42v-1h1.42v-1.84h1.08v1.84h2.44v1h-2.44v5a1.63,1.63,0,0,0,.36,1.15,1.33,1.33,0,0,0,1,.39,2,2,0,0,0,.64-.11,1.61,1.61,0,0,0,.54-.32Z" transform="translate(0 -0.04)"/><path class="cls-16" d="M181.61,156.12a.82.82,0,0,1,0-1.14.77.77,0,0,1,1.12,0,.76.76,0,0,1,.23.55.84.84,0,0,1-.23.59.77.77,0,0,1-1.12,0Zm0,2.08h1.08v8.42h-1.08Z" transform="translate(0 -0.04)"/><path class="cls-16" d="M192.18,159.06a3.7,3.7,0,0,1,.89,2.68v4.88H192v-4.77a2.9,2.9,0,0,0-.62-2,2.28,2.28,0,0,0-1.78-.69,2.67,2.67,0,0,0-2.05.81,3.15,3.15,0,0,0-.75,2.23v4.42h-1.08V158.2h1v1.55a3,3,0,0,1,1.22-1.19,3.79,3.79,0,0,1,1.82-.42A3.14,3.14,0,0,1,192.18,159.06Z" transform="translate(0 -0.04)"/><path class="cls-16" d="M203.43,158.2v7.39a4.46,4.46,0,0,1-1,3.18,4,4,0,0,1-3,1,6.44,6.44,0,0,1-2.11-.34,4.31,4.31,0,0,1-1.62-1l.55-.86a4.06,4.06,0,0,0,1.41.85,5.05,5.05,0,0,0,1.74.3,3,3,0,0,0,2.23-.74,3.23,3.23,0,0,0,.72-2.31v-1.08a3.36,3.36,0,0,1-1.32,1.22,3.85,3.85,0,0,1-1.8.42,4.13,4.13,0,0,1-2-.52,3.77,3.77,0,0,1-1.45-1.46,4.56,4.56,0,0,1,0-4.23,3.69,3.69,0,0,1,1.44-1.44,4.1,4.1,0,0,1,2.05-.51,3.87,3.87,0,0,1,1.84.43,3.3,3.3,0,0,1,1.32,1.25V158.2Zm-2.52,6.7a2.75,2.75,0,0,0,1.09-1.1,3.24,3.24,0,0,0,.39-1.6,3.18,3.18,0,0,0-.39-1.59,2.76,2.76,0,0,0-1.08-1.09,3.15,3.15,0,0,0-1.57-.39,3.22,3.22,0,0,0-1.56.38,2.76,2.76,0,0,0-1.08,1.09,3.48,3.48,0,0,0,0,3.2,2.79,2.79,0,0,0,1.08,1.1,3.32,3.32,0,0,0,3.12,0Z" transform="translate(0 -0.04)"/></g></g></svg>