<svg xmlns="http://www.w3.org/2000/svg" viewBox="0 0 201.58 169.76"><defs><style>.cls-1{fill:#bebb75;}.cls-2{fill:#9dc0de;}.cls-3{fill:#075480;}.cls-4,.cls-6,.cls-7{fill:none;}.cls-4,.cls-7{stroke:#075480;stroke-miterlimit:10;}.cls-4{stroke-width:2px;}.cls-5{fill:#e2dfc1;}.cls-8{fill:#fff;}</style></defs><g id="Layer_2" data-name="Layer 2"><g id="Layer_1-2" data-name="Layer 1"><g id="Layer_2-2" data-name="Layer 2"><g id="Layer_1-2-2" data-name="Layer 1-2"><circle class="cls-1" cx="99.77" cy="66.92" r="60.43"/><path class="cls-2" d="M39.62,61.17S34,91.9,64.05,115.68c27.15,21.47,59,7.17,59,7.17S62.2,103.38,66.7,86.63,77.07,72.3,75.32,66.55C72.6,57.62,39.62,61.17,39.62,61.17Z"/><path class="cls-3" d="M40.27,55.41s10.29-2.67,28.22-.89c22.58,2.23,25.7,7.62,21.78,12.66-4.5,5.78-8,7.53-6.85,12.55,1.06,4.86,12.29,8.82,25.08,12.2C122,95.5,144.66,97,152.67,95.49c-3.26,7.16-11.73,18.89-29.65,27.36-6.92-1.73-35.82-10.57-52.49-20.07-14.19-8.09-20.21-17-16.92-22.3,5.07-8.11,11.75-8,15.56-12.61,5.83-7.08-8.55-8-29.66-6.59C40,59,40.27,55.41,40.27,55.41Z"/><circle class="cls-4" cx="100.59" cy="66.65" r="60.43"/><path class="cls-5" d="M132.32,51.78c-7.58-5.61-1-4.59-4.12-11.42l-4.06-1.75c1,2.1,1.41,5.6-.34,7.29a8.73,8.73,0,0,0-10.12-1.07c-1.59-3.07-5.67-1.19-8.08-.54-.7-.19-.94-1.64-1.51-2.07a5.66,5.66,0,0,0-5.4-1.11L96.32,45c4.13-2.28,4.14,3.05,7.18,3.61,2.24,1.57-4,5.72-1.18,8.73,5,4.52.47,6.37,1.75,10,5.89,14.6-7.45,13.7-13,10.93-.14.72-1-.8-.4,1.73,3.79,2.53,5.27,3.17,11.17,4.22,4.62,4.93,26.83,8,28.89,5.27.93-1.25,1.47-.27,1.47-.27-18.57-2.61-15.9-5.2-14.9-21.13-.11-1.58-3.54-4.82-4.5-6.26-3-4.25-4.67-13.37,1.25-13.25,3.38.23,5-2.75,9,2.88,2,1.32,3.61,0,5.62,3"/><path class="cls-5" d="M96.68,42.64s.17,7.57-3.58,7.73-9.45-1.79-9.45-1.79A6.55,6.55,0,0,1,75,49.4c-5-3.26-2.77-7.74.81-9a3.58,3.58,0,0,0-.49-1.8,14.84,14.84,0,0,1-3.9,2c-2.12.65-9-.25-10.27-5.3-2.6.82-6.68,1.14-6.19-5.21s5.54-4.23,5.54-4.23S58.32,16,65.14,15.68s4.16,0,4.16,0,1.87-2.85,3.91-3.26c-1.27-1.26-2.2-5.7,1.38-7s4.55,1.13,4.55,1.13,4-3.74,6.11-2.44,3.66,2.61,3.83,3.42a7.07,7.07,0,0,1,3.42.16S94.89,2,98.64,2.81a15.7,15.7,0,0,1,5.5,2.08s3.21-5.21,7.2-4.36a12.41,12.41,0,0,1,6.11,3.34c2,.16,5-1.14,7.74,4.15,1.47-2.44.26-2,2.28-3.09,2.2-1.14,6.19-1.39,8.06,3.66,1.87-.88,4.57-1.47,6.68,1a6.66,6.66,0,0,1,1.14,5.78s5.3-1.3,7.58,2,1.46,4.15,1.46,4.15,3.1-1.59,7.25,2c2.77,2.37,2.12,8.8,2.12,8.8a5.34,5.34,0,0,1,4,5.62c-.16,4.72-1.3,8.39-5.7,8,.73,2.85-.24,6-3.26,6.6a16.92,16.92,0,0,0-4.56,1.79s1.22-.65,5.78,1.14,3.29,8.2.09,8.88a10.41,10.41,0,0,1-5.62-.73s-3.59,4.23-6.28,3.82c-4.14-.62-5.84-2.55-5.84-2.55s-6.94,2-8.16-3.72c-1,.08-1.31.57-2.94-1.22s-3-5.86,2.36-6.35a7.61,7.61,0,0,1,3.59-6.68c.73-.49-.46,1.12-3.1-2.77a6.19,6.19,0,0,1-.89-5s-.49,1.06-2.61,1.06c-3.52,0-2.28-.41-4.07-1.47-6,6.36-12.22,2.61-13-.16-1.55.65-2.61,3.1-6.19,1.79s-3.1-3.58-3.1-3.58a27.05,27.05,0,0,1-3.66,2C97.58,42.88,96.68,42.64,96.68,42.64Z"/><path class="cls-6" d="M103.79,36.17c.51-11.93-20.34-22.9-21.86-12.59-3.46-1.2-9.27-1.35-9.93,3.23a2.84,2.84,0,0,1-1.2,2.74c-4.76,4.22.25,9.26,5.34,8.42Z"/><path class="cls-6" d="M73,12.82c-2.74-3.12-.44-6.23,1.5-7.2,2.6-1.3,4.07-1.14,5,1.06.75-2.36,3-2.56,5.3-2.36a5.24,5.24,0,0,1,4.57,5.45q-3.81,9-7.63,17.93c-1.35,0-11.11-5.47-12.65-7.93-.52-.85.61-4,1.9-5.76.73-1,1.44-.76,2-1.19"/><path class="cls-6" d="M69.47,15.53c4.37-3.53,11-.77,10,7.7,2.13.25,4.11-1.12,5.51.91s3.84,6.36,2.74,8.42-5.62,3.86-7.34,2.22c.09,4-6.73,5-6.1,4-1.85,2.88-10.64,2-12.38-4.12l-2.23.86c-6.38,1.54-6.21-11.17.49-10.42a7.6,7.6,0,0,1,4.93-9.55,7.73,7.73,0,0,1,3.76-.22"/><path class="cls-3" d="M114.78,90.5a3.64,3.64,0,0,1,.07-.44,3.33,3.33,0,0,1,.16-.51,4.66,4.66,0,0,1,.48-.91,5.16,5.16,0,0,1,1.6-1.41.48.48,0,0,0,.19-.66v0a.51.51,0,0,0-.68-.18,5.37,5.37,0,0,0-2.81,4.13.5.5,0,0,0,.5.5.51.51,0,0,0,.5-.5Z"/><path class="cls-3" d="M128.27,89a6,6,0,0,1,.69,3.39.5.5,0,0,0,.53.49.47.47,0,0,0,.33-.14,4.84,4.84,0,0,0,1.24-4.08l-.92.38a4.74,4.74,0,0,1,.69,3.66.52.52,0,0,0,.37.64.52.52,0,0,0,.63-.37,5.76,5.76,0,0,0-.78-4.43.51.51,0,0,0-.92.38,3.81,3.81,0,0,1-1,3.11l.85.36a7,7,0,0,0-.83-3.9.51.51,0,0,0-.69-.16.5.5,0,0,0-.17.67Z"/><path class="cls-3" d="M132.67,88.75c-.15-.12,0,0,0,0s-.06-.11,0,0l.07.12s.08.18,0,.1,0,.07,0,.09l.06.17a1.86,1.86,0,0,0,.1.39c.07.29.12.58.17.87l.06.41V91h0v.25c.06.52.11,1,.2,1.56a1.81,1.81,0,0,0,.13.47.56.56,0,0,0,.75.23.31.31,0,0,0,.11-.09,1.13,1.13,0,0,0,.26-.59c.08-.36.13-.73.18-1.1l-.23.3a4.52,4.52,0,0,0,1.95-3.62l-.85.36a3.33,3.33,0,0,1,.88,3.68.5.5,0,0,0,.18.69.49.49,0,0,0,.68-.18,4.36,4.36,0,0,0-1-4.9.51.51,0,0,0-.72,0,.43.43,0,0,0-.14.32,3.16,3.16,0,0,1-.46,1.65,3.27,3.27,0,0,1-.55.72c-.24.25-.64.44-.69.81s-.1.7-.18,1.05v.19c0,.06,0-.1,0-.06s.07-.07.09-.09a.49.49,0,0,1,.67.1h0v-.11a1.22,1.22,0,0,1,0-.27v-.17h0v-.56c-.09-.71-.17-1.42-.31-2.12a2.81,2.81,0,0,0-.84-1.79.51.51,0,0,0-.68.18.52.52,0,0,0,.18.69Z"/><path class="cls-3" d="M137.39,92.54a4.42,4.42,0,0,1,1.8-3.71.5.5,0,0,0,0-.71.51.51,0,0,0-.71,0,5.34,5.34,0,0,0-2.09,4.42.51.51,0,0,0,.5.5A.5.5,0,0,0,137.39,92.54Z"/><path class="cls-3" d="M96.85,45.22a1.71,1.71,0,0,1,2.06-.14,7.43,7.43,0,0,1,1.41,1.75,6.37,6.37,0,0,0,1.61,1.78c.45.31,1.3.28,1.29.94a4.37,4.37,0,0,1-.84,1.92,18.56,18.56,0,0,0-1.24,2.38,4,4,0,0,0-.24,2.41,5.77,5.77,0,0,0,2,2.5A6,6,0,0,1,104.4,61a3.08,3.08,0,0,1-.08,1.73c-.22.81-.5,1.61-.68,2.43a16.4,16.4,0,0,0-.29,1.68,1.76,1.76,0,0,0,0,.79c.14.42.36.83.52,1.24,1.18,3,2.46,7.9-1.15,9.85a9.84,9.84,0,0,1-5.35.83,27.29,27.29,0,0,1-6.8-1.43c-.62-.2-.88.77-.27,1a30.1,30.1,0,0,0,6.49,1.42,12.43,12.43,0,0,0,5.45-.49,5.54,5.54,0,0,0,3.34-3,9.34,9.34,0,0,0,0-6,18.91,18.91,0,0,0-.59-1.9,6,6,0,0,1-.72-2.15,15.55,15.55,0,0,1,.69-3.15c.46-1.51.73-2.82-.2-4.22a10.38,10.38,0,0,0-.93-1.17c-.51-.55-1.15-1-1.62-1.6a2.42,2.42,0,0,1-.25-2.47,13.69,13.69,0,0,1,1.28-2.46,5.41,5.41,0,0,0,.91-2.25,1.56,1.56,0,0,0-.26-1c-.29-.43-.64-.45-1.1-.63a4.74,4.74,0,0,1-1.86-1.93,6.15,6.15,0,0,0-1.8-2,2.77,2.77,0,0,0-2.85.29.49.49,0,0,0-.16.69.49.49,0,0,0,.67.17Z"/><path class="cls-3" d="M132.44,88.65a81.58,81.58,0,0,1-8.74-1.93,13,13,0,0,1-4.8-2.25c-2.42-2.08-2.12-5.62-1.94-8.5.07-1.21.18-2.41.27-3.62.06-.65.11-1.31.16-2s.18-1.55.16-2.31c0-1.2-1.11-2.35-1.82-3.22-.88-1.08-1.89-2.07-2.7-3.21a15.1,15.1,0,0,1-2.66-7.24c-.19-2,.08-4.73,2.44-5.25a13.72,13.72,0,0,1,1.81-.09,9.1,9.1,0,0,0,1.55-.25,5.54,5.54,0,0,1,2.74-.22,4.1,4.1,0,0,1,1.57.93,10.31,10.31,0,0,1,.87.88c.37.42.67.94,1.06,1.35.9.94,2.48.79,3.62,1.23a4.43,4.43,0,0,1,2,1.73c.36.53,1.23,0,.86-.5A5.93,5.93,0,0,0,127,52.26a6.72,6.72,0,0,0-1.91-.59,3.64,3.64,0,0,1-1.9-.7c-.36-.35-.64-.84-1-1.22a12.51,12.51,0,0,0-.93-1,4.69,4.69,0,0,0-3.27-1.33c-1,0-2,.43-3,.56-1.21.14-2.35-.07-3.46.58a4.2,4.2,0,0,0-1.84,2.54c-.72,2.56,0,5.52.94,7.92a14.19,14.19,0,0,0,1.86,3.37c.92,1.2,2,2.28,2.93,3.48a8.28,8.28,0,0,1,1.11,1.72,4.77,4.77,0,0,1,0,2.06c-.1,1.4-.22,2.8-.33,4.2A38.41,38.41,0,0,0,116,80.1a7.47,7.47,0,0,0,1.47,4.17,9.25,9.25,0,0,0,4.12,2.7,46.13,46.13,0,0,0,8,2.08l2.68.5c.63.12.9-.84.27-1Z"/><path class="cls-3" d="M98.29,41.23a5.85,5.85,0,0,0,2,.05,2.81,2.81,0,0,1,1.52.09,4.76,4.76,0,0,1,1.79,1.8c.37.57.8,1.35,1.49,1.59s1.42-.27,1.94-.43a20.85,20.85,0,0,1,2.2-.56c1.49-.27,3-.1,3.76,1.34a.49.49,0,0,0,.67.19h0a8.3,8.3,0,0,1,9.52,1,.5.5,0,0,0,.7,0c2-2,1.5-5.53.42-7.9-.26-.58-1.13-.07-.86.51.89,1.94,1.39,5-.26,6.68h.7a9.31,9.31,0,0,0-10.75-1.15l.68.18c-1.71-3.15-5.57-1.68-8.22-.9-.38.11-.43,0-.71-.37s-.46-.71-.71-1.06a5.65,5.65,0,0,0-1.89-1.78c-1.2-.59-2.47,0-3.72-.23-.63-.12-.9.84-.27,1Z"/><path class="cls-3" d="M127.5,40.64a7,7,0,0,1,.53,5.15,4.82,4.82,0,0,0-.3,1.59,3.28,3.28,0,0,0,.77,1.89,15.9,15.9,0,0,0,3.29,3c.52.38,1-.48.51-.87a15.19,15.19,0,0,1-2.94-2.61,2.48,2.48,0,0,1-.64-1.53,6.63,6.63,0,0,1,.35-1.43,6.4,6.4,0,0,0,.28-2.09,9.78,9.78,0,0,0-1-3.58c-.27-.59-1.13-.08-.86.5Z"/><path class="cls-7" d="M106.49,55.69a6.14,6.14,0,0,0,3.26-.28"/><path class="cls-7" d="M106.81,58a6.33,6.33,0,0,0,3.58-.22"/><path class="cls-7" d="M107.41,60.34a12,12,0,0,0,3.43-.37"/><path class="cls-7" d="M111.84,66.85c1.29.29,2.71,1,4.75.29"/><path class="cls-7" d="M111.92,69.07a5.82,5.82,0,0,0,4.83.19"/><path class="cls-7" d="M112.3,71.57a5,5,0,0,0,4.21.3"/><path class="cls-3" d="M86,76.66l.17.32h0l0,.17a1.67,1.67,0,0,0,.08.3v.23a1.82,1.82,0,0,1,0,.33v.21a3.33,3.33,0,0,1-.16.64.51.51,0,0,0,.37.63.51.51,0,0,0,.63-.37,3.59,3.59,0,0,0-.28-3,.52.52,0,0,0-.69-.18.52.52,0,0,0-.18.68Z"/><path class="cls-3" d="M88.14,76.69a6,6,0,0,1-.48,3.42.51.51,0,0,0,.37.62.48.48,0,0,0,.37,0,4.81,4.81,0,0,0,2.46-3.33h-1A4.76,4.76,0,0,1,89.27,81a.51.51,0,0,0,.25.67.5.5,0,0,0,.61-.17,5.76,5.76,0,0,0,.69-4.44.5.5,0,0,0-1,0,3.83,3.83,0,0,1-2,2.72l.74.57a7,7,0,0,0,.48-4,.52.52,0,0,0-1,.27Z"/><path class="cls-3" d="M99.14,82.45a2.79,2.79,0,0,1,.11.35v.09a.17.17,0,0,1,0,.1v.34h0v.21a4.07,4.07,0,0,1-.13.5c-.18.62-.45,1.22-.64,1.83a.52.52,0,0,0,.37.64.52.52,0,0,0,.63-.37c.2-.66.48-1.28.67-1.94a3.13,3.13,0,0,0,0-2,.52.52,0,0,0-1,.27Z"/><path class="cls-3" d="M101.74,86.89a4.47,4.47,0,0,0,2.4-3.18l-.83.22a3.33,3.33,0,0,1,.18,3.79c-.34.54.52,1,.86.5a4.37,4.37,0,0,0-.33-5,.5.5,0,0,0-.71,0,.5.5,0,0,0-.13.22,3.49,3.49,0,0,1-2,2.57c-.57.3-.07,1.16.5.87Z"/><path class="cls-3" d="M105.8,88.15a1,1,0,0,1,.08-.44,4.91,4.91,0,0,1,.15-.51,4.71,4.71,0,0,1,.49-.91,4.93,4.93,0,0,1,1.6-1.41.5.5,0,0,0,.18-.69.51.51,0,0,0-.68-.18,5.44,5.44,0,0,0-2.82,4.14.51.51,0,0,0,.5.5.5.5,0,0,0,.5-.5Z"/><path class="cls-3" d="M109.5,85.52a3.12,3.12,0,0,1,.81,3,.49.49,0,0,0,.36.61.44.44,0,0,0,.37,0A4.46,4.46,0,0,0,113.46,86l-.83.22a3.33,3.33,0,0,1,.18,3.78c-.34.55.52,1,.86.51a4.36,4.36,0,0,0-.34-5,.51.51,0,0,0-.71,0,.63.63,0,0,0-.12.21,3.55,3.55,0,0,1-2,2.58l.74.56a4.12,4.12,0,0,0-1.06-4c-.45-.47-1.16.24-.71.7Z"/><path class="cls-3" d="M115.85,88.8c.06.11.12.22.17.33h0l.06.17a1.67,1.67,0,0,0,.08.3v.23a1.82,1.82,0,0,1,0,.33v.21A3.33,3.33,0,0,1,116,91a.5.5,0,0,0,.35.61.49.49,0,0,0,.61-.34,3.59,3.59,0,0,0-.28-3,.52.52,0,0,0-.69-.18.5.5,0,0,0-.18.68Z"/><path class="cls-3" d="M118.14,87.2a6.07,6.07,0,0,1-.48,3.42.49.49,0,0,0,.18.53.5.5,0,0,0,.55,0,4.82,4.82,0,0,0,2.47-3.33h-1a4.76,4.76,0,0,1-.59,3.68.51.51,0,0,0,.25.67.5.5,0,0,0,.61-.17,5.76,5.76,0,0,0,.69-4.44.53.53,0,0,0-1,0,3.88,3.88,0,0,1-2,2.73l.73.56a6.85,6.85,0,0,0,.48-4,.52.52,0,0,0-1,.26Z"/><path class="cls-3" d="M120.62,89.32A3.1,3.1,0,0,1,122,92.16a.48.48,0,0,0,.31.45.51.51,0,0,0,.55-.1,4.49,4.49,0,0,0,1.7-3.62l-.86.36a3.35,3.35,0,0,1,1,3.75.49.49,0,0,0,.34.62h0a.51.51,0,0,0,.62-.35,4.33,4.33,0,0,0-1.29-4.73c-.3-.26-.88-.11-.85.35a3.55,3.55,0,0,1-1.39,2.91l.85.36a4.11,4.11,0,0,0-1.88-3.7.5.5,0,0,0-.52.86h0Z"/><path class="cls-3" d="M127,92.36c0-.13.06-.26.1-.39a5,5,0,0,1,.16-.51,4.22,4.22,0,0,1,.49-.91,4.89,4.89,0,0,1,1.59-1.41.48.48,0,0,0,.19-.66v0a.51.51,0,0,0-.68-.18,5.39,5.39,0,0,0-2.81,4.13.5.5,0,0,0,.5.5.51.51,0,0,0,.5-.5Z"/><path class="cls-3" d="M95.85,80.34c-1.46.34-2.23,2.12-2.47,3.45l.92-.12a1.18,1.18,0,0,1-.14-.22v-.19a3.77,3.77,0,0,1-.18-.68,10.21,10.21,0,0,1-.2-1.57,14.41,14.41,0,0,1,0-1.61,3.15,3.15,0,0,1,.16-1.05.5.5,0,0,0-.35-.61.61.61,0,0,0-.27,0,3.81,3.81,0,0,0-1.93,2.56,7.8,7.8,0,0,0-.49,3.24.51.51,0,0,0,.5.5.5.5,0,0,0,.5-.5,6.88,6.88,0,0,1,.39-2.77,6.29,6.29,0,0,1,.59-1.36,2.82,2.82,0,0,1,.26-.44,1.36,1.36,0,0,1,.34-.23l-.62-.61a4.85,4.85,0,0,0-.19,1.25,12.63,12.63,0,0,0,0,1.74,12,12,0,0,0,.23,1.8,3.32,3.32,0,0,0,.49,1.29c.23.31.83.35.92-.12a5.21,5.21,0,0,1,.58-1.66,2,2,0,0,1,1.25-1.12c.63-.15.37-1.11-.26-1Z"/><path class="cls-3" d="M96.81,85a2.78,2.78,0,0,0-.14-.53c0-.18,0-.15,0-.23v-.43h0a1.38,1.38,0,0,1,.12-.4h0v-.11l.12-.22.32-.48a13,13,0,0,1,1-1.28.49.49,0,0,0-.16-.67h0a.53.53,0,0,0-.69.18,9.86,9.86,0,0,0-1.57,2.37,3.19,3.19,0,0,0,.08,2.09.52.52,0,0,0,.63.37.52.52,0,0,0,.37-.64Z"/><path class="cls-3" d="M100.5,24.08c.32-3.77-2.4-6.48-5.82-7.49a12.12,12.12,0,0,0-10.49,1.55,7.33,7.33,0,0,0-2.88,5.14l.93-.25C79.86,18.85,74,20.77,72,24.28A6.1,6.1,0,0,0,71.24,28l.14-.35a5.54,5.54,0,0,0-1.66,6,5.32,5.32,0,0,0,4.19,4c.63.08.63-.92,0-1-1.65-.21-2.81-1.8-3.25-3.28a4.63,4.63,0,0,1,1.24-4.85c.38-.35.31-.58.29-1.07a5.06,5.06,0,0,1,.15-1.34,5.77,5.77,0,0,1,1-2.07,6.52,6.52,0,0,1,3.87-2.33,3.82,3.82,0,0,1,4.14,1.83.51.51,0,0,0,.69.18.51.51,0,0,0,.24-.44c.73-6.9,11.24-7.95,15.52-3.84a5.62,5.62,0,0,1,1.67,4.64c-.06.64,1,.63,1,0Z"/><path class="cls-3" d="M73,21.19a4.2,4.2,0,0,1-2.65-4.85c.23-1.65,1.3-3.65,3.23-3.46.55,0,.69-.9.13-1-2-.3-1.11-3.45-.49-4.59A3.23,3.23,0,0,1,78.84,7a.49.49,0,0,0,.66.2.43.43,0,0,0,.2-.2c1.89-3.86,7.42-2.74,9.06.75.27.59,1.13.08.86-.5C87.67,3,81,2,78.84,6.43h.86A4.14,4.14,0,0,0,75.52,4.5a4.08,4.08,0,0,0-3.13,2.2c-1,1.68-1.84,5.75,1,6.16l.14-1c-2.44-.24-3.92,2.22-4.21,4.33a5.19,5.19,0,0,0,3.36,5.94c.62.2.88-.77.27-1Z"/><path class="cls-3" d="M95.21,40.82a6.84,6.84,0,0,1,.39,6A5.06,5.06,0,0,1,89.88,50,16.53,16.53,0,0,1,83,47c-.54-.36-1,.51-.51.87,3.06,2,7.59,4.51,11.27,2.55,2.3-1.23,3.32-4,3.28-6.45a6.65,6.65,0,0,0-1-3.63C95.71,39.78,94.85,40.31,95.21,40.82Z"/><path class="cls-3" d="M84.08,19c-2.49-4.88,2.7-10.5,7.5-10.94.63-.06.64-1.06,0-1-5.58.51-11.22,6.84-8.37,12.44C83.51,20,84.37,19.54,84.08,19Z"/><path class="cls-3" d="M93,9.38c-.41-5.67,7-7.15,10.81-4.35a.51.51,0,0,0,.69-.18C106.77,0,114.2-.4,116.9,4.31a.5.5,0,0,0,.57.23c5.39-1,9.85,5.21,7.15,10a.5.5,0,0,0,.18.69.5.5,0,0,0,.69-.19,7.66,7.66,0,0,0-.59-8.29,7.87,7.87,0,0,0-7.7-3.18l.57.23c-3-5.31-11.53-5-14.19.54l.69-.18C99.86,1,91.48,3,92,9.38A.5.5,0,0,0,93,9.38Z"/><path class="cls-3" d="M126.27,11.25a4.33,4.33,0,0,1,3.34,1.53,7.76,7.76,0,0,1,1.75,4.76.5.5,0,0,0,1,0,8.84,8.84,0,0,0-2-5.47,5.39,5.39,0,0,0-4.05-1.82.5.5,0,0,0-.5.5.5.5,0,0,0,.5.5Z"/><path class="cls-3" d="M130.78,23c-1.25-5.5,6.36-10,10.79-6.94.53.37,1-.5.51-.86C138,12.32,132,15,130.16,19.32a6.4,6.4,0,0,0-.34,3.91c.14.63,1.1.36,1-.26Z"/><path class="cls-3" d="M139.56,19c2.5-4,10.52-5,12.08.31a.51.51,0,0,0,.63.37.51.51,0,0,0,.37-.63c-1.42-4.83-7.41-5.3-11.22-3.1a7.79,7.79,0,0,0-2.69,2.54c-.34.55.52,1,.86.51Z"/><path class="cls-3" d="M152.33,22.08a7.65,7.65,0,0,1,8,3,7.09,7.09,0,0,1,1.38,4.32,8.28,8.28,0,0,1-2.09,5.08c-.41.49.3,1.2.71.71a8.8,8.8,0,0,0,1.93-8.57,9,9,0,0,0-5.64-5.41,8,8,0,0,0-4.56-.13.52.52,0,0,0-.37.63.51.51,0,0,0,.63.37Z"/><path class="cls-3" d="M162.05,32.65c2.63,1,3.57,3.65,3.41,6.25-.14,2.18-1,5-2.93,6.27a2.23,2.23,0,0,1-2.76-.14c-.45-.34-1,.43-.61.78a2.67,2.67,0,0,1,1.19,2.24,3.65,3.65,0,0,1-1.09,2.19A6,6,0,0,1,154,52.19a3.65,3.65,0,0,1-2.56-2.1c-.29-.58-1.15-.07-.87.5A4.92,4.92,0,0,0,156.77,53c2-.65,4.25-2.34,4.55-4.6a3.55,3.55,0,0,0-1.45-3.24l-.61.79c2.29,1.73,4.67-.11,5.83-2.21a10.31,10.31,0,0,0,.8-8.59,6,6,0,0,0-3.57-3.4c-.61-.23-.87.74-.27,1Z"/><path class="cls-3" d="M130.48,39.79c-.34,3.27,1.89,5.88,4.62,7.36.56.31,1.07-.56.5-.86a8.57,8.57,0,0,1-3.29-2.89,5.58,5.58,0,0,1-.83-3.61.5.5,0,0,0-.5-.5A.52.52,0,0,0,130.48,39.79Z"/><path class="cls-3" d="M142.9,47.78a6.5,6.5,0,0,0-6-1.87,7.11,7.11,0,0,0-5.57,7.45l.5-.5A4.68,4.68,0,0,0,128.19,54a3.84,3.84,0,0,0-1,3,4.64,4.64,0,0,0,4.73,4.31,9.36,9.36,0,0,0,5.6-2.58c.49-.41-.22-1.12-.71-.71-1.86,1.56-5,3.36-7.27,1.53a3.43,3.43,0,0,1-.81-4.55,3.56,3.56,0,0,1,3.15-1.09.5.5,0,0,0,.5-.5,6.2,6.2,0,0,1,3.31-5.94,5.52,5.52,0,0,1,6.55,1.06.5.5,0,0,0,.71,0,.51.51,0,0,0,0-.66Z"/><path class="cls-3" d="M153.43,54.65c2.73,0,6.14,1,6.89,4a4.24,4.24,0,0,1-2.81,5,7.26,7.26,0,0,1-5-.46.49.49,0,0,0-.49.13c-1.47,1.56-3.32,3.13-5.58,3.2s-4.08-1.26-5.65-2.63a.53.53,0,0,0-.61-.07c-2.69,1.46-6.58.5-7.51-2.63a.52.52,0,1,0-1,.26c1.12,3.77,5.71,5,9,3.23l-.61-.08c1.77,1.54,3.92,3,6.36,2.92s4.63-1.73,6.29-3.5l-.49.13c2.84,1.16,6.47,1.15,8.33-1.67a5.33,5.33,0,0,0-1.2-7,9.69,9.69,0,0,0-6-1.83.5.5,0,0,0-.5.5.5.5,0,0,0,.5.5Z"/><path class="cls-3" d="M140.74,51.16a6.81,6.81,0,0,1,7.63-.71,6.59,6.59,0,0,1,3.6,6.7c-.09.63.91.63,1,0,.66-5.08-4.25-9.18-9.14-8.47a7.59,7.59,0,0,0-3.8,1.77c-.49.43.22,1.13.71.71Z"/><path class="cls-3" d="M102.14,28.63c1.57-1.34,2.45-3.27,3.5-5,.93-1.55,2.13-3.07,4.12-3a10.13,10.13,0,0,1,4.66,1.87c.55.35,1-.52.51-.86-2.13-1.35-5.07-2.86-7.54-1.45-1.8,1-2.72,3.13-3.73,4.84A10.9,10.9,0,0,1,101.38,28c-.49.42.22,1.12.71.71Z"/><path class="cls-3" d="M115.14,22.9a10.51,10.51,0,0,1,8.66-.72,6.21,6.21,0,0,1,4.34,6.29.5.5,0,0,0,1,0c.37-5.62-5.47-8.41-10.37-7.81A11.4,11.4,0,0,0,114.56,22a.51.51,0,0,0-.18.69.49.49,0,0,0,.69.18h.07Z"/><path class="cls-3" d="M130.25,28a8.1,8.1,0,0,1,3.62,3.83,5.25,5.25,0,0,1-.09,3.84A6,6,0,0,1,126,39.06a5.93,5.93,0,0,1-2.81-2.26c-.39-.51-1.1.2-.71.71a7.44,7.44,0,0,0,4.41,2.89,6.75,6.75,0,0,0,4.49-.75A6.9,6.9,0,0,0,135,32a8.67,8.67,0,0,0-4.23-4.89.5.5,0,0,0-.66.25.49.49,0,0,0,.16.61Z"/><path class="cls-3" d="M124,38.58c-3.32,4-9.29,3.43-12.69-.17-.44-.47-1.15.24-.7.71,3.74,4,10.44,4.6,14.09.17C125.07,38.8,124.37,38.08,124,38.58Z"/><path class="cls-3" d="M83.81,48.5a6.82,6.82,0,0,1-8.21.68c-1.79-1.21-3.46-3.55-2.7-5.77a4.66,4.66,0,0,1,3.37-2.59.49.49,0,0,0,.35-.61.61.61,0,0,0-.05-.12c-1.21-1.81-.27-3.73,1.23-5s3.54-2.26,5.34-1.75a2.32,2.32,0,0,1,1.63,2.09c0,.37.55.73.85.35,1.67-2.11,4.44-2.46,6.9-1.75,2.21.64,4.62,2.22,5.17,4.6a4.44,4.44,0,0,1-1.13,3.86c-.41.49.3,1.2.71.71a5.72,5.72,0,0,0,1.51-4,5.89,5.89,0,0,0-1.64-3.56,9.64,9.64,0,0,0-8-2.89,6.4,6.4,0,0,0-4.23,2.32l.85.36a3.47,3.47,0,0,0-1.62-2.77,4.8,4.8,0,0,0-3.21-.28,8,8,0,0,0-5.64,4.41,4,4,0,0,0,.42,3.8l.3-.73a6,6,0,0,0-3.8,2.64A4.73,4.73,0,0,0,72,46.31a7.83,7.83,0,0,0,6.8,5,8.27,8.27,0,0,0,5.67-2.07c.5-.41-.21-1.11-.7-.71Z"/><path class="cls-3" d="M126.37,7.1c1.83-4,8.13-2.35,8.7,1.67a.49.49,0,0,0,.62.35.27.27,0,0,0,.11,0,4.68,4.68,0,0,1,5.63.47c1.09.94,2.32,2.75,1.51,4.22-.31.56.55,1.07.86.5,1-1.88-.2-4.17-1.67-5.43a5.69,5.69,0,0,0-6.83-.63l.73.3c-.69-4.85-8.35-6.61-10.52-1.91-.27.58.59,1.09.86.51Z"/><path class="cls-3" d="M59.85,25.31l.08.65.93-.25c-1.25-2.46-1-6.15,1.22-8,1.85-1.55,4.82-1.94,7.15-1.62.63.09.9-.88.26-1-2.73-.37-6.08.07-8.22,2a7.12,7.12,0,0,0-2.07,4.22,8.22,8.22,0,0,0,.8,4.93c.21.42,1,.24.93-.26l-.08-.65c-.08-.63-1.08-.64-1,0Z"/><path class="cls-3" d="M61.54,34.72c-1.34.39-3,.88-4.29.11a4.07,4.07,0,0,1-1.62-3.22,6.46,6.46,0,0,1,.77-4.08A3.31,3.31,0,0,1,59.75,26c.63.13.9-.83.27-1-2.75-.6-4.9,1.78-5.31,4.3-.38,2.31,0,5.58,2.46,6.62,1.49.63,3.16.21,4.63-.22a.51.51,0,0,0,.37-.63.52.52,0,0,0-.63-.37Z"/><path class="cls-3" d="M61.22,35.38c.48,3,3.22,4.82,6,5.4a9,9,0,0,0,8.36-2.25c.46-.45-.25-1.16-.71-.71a8,8,0,0,1-7.39,2c-2.47-.52-4.87-2-5.29-4.71-.1-.63-1.07-.36-1,.27Z"/><path class="cls-7" d="M102.48,25.58s-5.86-.17-5.34,6.39c.33,4.49,5.21,4.89,5.21,4.89.37,2.52,2,3.13,4.72,3.26,3.42.16,5.87-3.26,5.87-3.26"/><path class="cls-7" d="M97.94,38.65s2.86.23,3.77-1.82"/><path class="cls-8" d="M47.05,138.12H43.64V136h9.28v2.11H49.51v9.09H47.05Z"/><path class="cls-8" d="M57.3,138.79a4.35,4.35,0,0,1,1.67-.32v2.31h-.54a2.13,2.13,0,0,0-1.59.6,2.51,2.51,0,0,0-.58,1.8v4.06H53.89v-8.61h2.25v1.14A2.91,2.91,0,0,1,57.3,138.79Z"/><path class="cls-8" d="M66.55,139.43a3.73,3.73,0,0,1,1,2.87v4.91h-2.2v-1.07a2.57,2.57,0,0,1-2.49,1.2,3.56,3.56,0,0,1-1.64-.34,2.3,2.3,0,0,1-1-.93,2.42,2.42,0,0,1-.37-1.34,2.28,2.28,0,0,1,.86-1.88,4.21,4.21,0,0,1,2.65-.7h1.89a1.64,1.64,0,0,0-.47-1.25,2,2,0,0,0-1.42-.44,4,4,0,0,0-1.28.22,3.19,3.19,0,0,0-1.07.58l-.87-1.75a5.24,5.24,0,0,1,1.6-.76,6.91,6.91,0,0,1,1.92-.28A4.15,4.15,0,0,1,66.55,139.43Zm-2,5.93a1.62,1.62,0,0,0,.67-.87v-.88H63.57c-1,0-1.46.34-1.46,1a.9.9,0,0,0,.36.76,1.48,1.48,0,0,0,1,.28,1.91,1.91,0,0,0,1.06-.29Z"/><path class="cls-8" d="M77.68,138.6l-3.45,8.61H71.78l-3.44-8.61h2.45l2.27,5.86,2.34-5.86Z"/><path class="cls-8" d="M78.77,137a1.39,1.39,0,0,1,0-2l0,0a1.48,1.48,0,0,1,1.06-.4,1.51,1.51,0,0,1,1.07.39,1.25,1.25,0,0,1,.41,1,1.41,1.41,0,0,1-.41,1,1.45,1.45,0,0,1-1.07.41A1.5,1.5,0,0,1,78.77,137Zm-.12,1.6H81v8.61H78.65Z"/><path class="cls-8" d="M84,147.07a4.94,4.94,0,0,1-1.55-.66l.79-1.79a5,5,0,0,0,1.33.61,6,6,0,0,0,1.52.23q1.5,0,1.5-.78a.55.55,0,0,0-.41-.53,5,5,0,0,0-1.26-.28,11.68,11.68,0,0,1-1.66-.36,2.68,2.68,0,0,1-1.13-.75,2.13,2.13,0,0,1-.48-1.5,2.41,2.41,0,0,1,.45-1.44,2.76,2.76,0,0,1,1.31-1,5.1,5.1,0,0,1,2-.36,7.62,7.62,0,0,1,1.72.19,4.84,4.84,0,0,1,1.42.56L88.77,141a4.61,4.61,0,0,0-2.35-.64,2.36,2.36,0,0,0-1.14.23.68.68,0,0,0-.38.57.54.54,0,0,0,.41.56,6.48,6.48,0,0,0,1.3.31,15.16,15.16,0,0,1,1.65.37,2.69,2.69,0,0,1,1.11.73,2.18,2.18,0,0,1,.47,1.47,2.42,2.42,0,0,1-.46,1.43,2.81,2.81,0,0,1-1.33,1,5.4,5.4,0,0,1-2.07.35A7.1,7.1,0,0,1,84,147.07Z"/><path class="cls-8" d="M95.74,147a3.71,3.71,0,0,1-1.48-1.21L95.63,144a2.4,2.4,0,0,0,2,1.23c1,0,1.51-.61,1.51-1.85v-5.33H95.37V136h6.19v7.26a4.35,4.35,0,0,1-1,3.1,3.69,3.69,0,0,1-2.86,1A4.55,4.55,0,0,1,95.74,147Z"/><path class="cls-8" d="M103.56,146.89a1.58,1.58,0,0,1-.42-1.12,1.42,1.42,0,1,1,2.84,0,1.58,1.58,0,0,1-.42,1.12,1.34,1.34,0,0,1-2,0Z"/><path class="cls-8" d="M120.4,145.13v2.08h-8.26V136h8v2.08h-5.59v2.43h4.94v2h-4.94v2.59Z"/><path class="cls-8" d="M122.2,135.34h2.37v11.87H122.2Z"/><path class="cls-8" d="M126.77,135.34h2.37v11.87h-2.37Z"/><path class="cls-8" d="M131.47,137a1.39,1.39,0,0,1,0-2l0,0a1.48,1.48,0,0,1,1.06-.4,1.57,1.57,0,0,1,1.07.39,1.25,1.25,0,0,1,.41,1,1.41,1.41,0,0,1-.41,1,1.6,1.6,0,0,1-2.13,0Zm-.12,1.6h2.37v8.61h-2.37Z"/><path class="cls-8" d="M137.49,146.77a4.05,4.05,0,0,1-1.6-1.58,4.81,4.81,0,0,1,0-4.57,4.26,4.26,0,0,1,1.6-1.58,5,5,0,0,1,4.63,0,4.26,4.26,0,0,1,1.6,1.58,4.81,4.81,0,0,1,0,4.57,4.05,4.05,0,0,1-1.6,1.58,4.91,4.91,0,0,1-4.63,0Zm3.82-2.13a2.84,2.84,0,0,0,0-3.47,2.06,2.06,0,0,0-2.91-.08l-.09.08a2.84,2.84,0,0,0,0,3.47,2.06,2.06,0,0,0,2.91.09A.76.76,0,0,0,141.31,144.64Z"/><path class="cls-8" d="M151.14,146.79a2.3,2.3,0,0,1-.86.42,4.3,4.3,0,0,1-1.07.14,2.76,2.76,0,0,1-3.05-2.44,2.36,2.36,0,0,1,0-.65v-3.54H144.9V138.8h1.24v-2.09h2.37v2.09h2v1.92h-2v3.51a1.27,1.27,0,0,0,.26.84,1,1,0,0,0,.76.28,1.36,1.36,0,0,0,1-.32Z"/><path class="cls-8" d="M157.58,146.79a2.3,2.3,0,0,1-.86.42,4.3,4.3,0,0,1-1.07.14,2.77,2.77,0,0,1-3-2.49,2.41,2.41,0,0,1,0-.6v-3.54h-1.27V138.8h1.27v-2.09H155v2.09h2v1.92h-2v3.51a1.27,1.27,0,0,0,.26.84,1,1,0,0,0,.76.28,1.36,1.36,0,0,0,1-.32Z"/><path class="cls-8" d="M0,155.39H1.14v11.2H0Z"/><path class="cls-8" d="M10.83,159a3.71,3.71,0,0,1,.88,2.68v4.88H10.64v-4.77a2.86,2.86,0,0,0-.63-2,2.27,2.27,0,0,0-1.78-.69,2.68,2.68,0,0,0-2,.81,3.14,3.14,0,0,0-.75,2.23v4.42H4.36v-8.42h1v1.55a3.1,3.1,0,0,1,1.22-1.19,4,4,0,0,1,1.82-.42A3.23,3.23,0,0,1,10.83,159Z"/><path class="cls-8" d="M18.86,166.07a1.86,1.86,0,0,1-.75.45,2.51,2.51,0,0,1-.94.15,2.27,2.27,0,0,1-1.73-.64,2.51,2.51,0,0,1-.61-1.81v-5.09H13.4v-1h1.43v-1.84h1.08v1.84h2.43v1H15.91v5a1.64,1.64,0,0,0,.36,1.15,1.3,1.3,0,0,0,1,.39,1.81,1.81,0,0,0,.65-.11,1.49,1.49,0,0,0,.54-.32Z"/><path class="cls-8" d="M28,158.17v8.42H27v-1.54a3,3,0,0,1-1.17,1.19,3.66,3.66,0,0,1-4.17-.49,3.69,3.69,0,0,1-.91-2.7v-4.88h1.08V163a2.87,2.87,0,0,0,.63,2,2.2,2.2,0,0,0,1.77.69,2.52,2.52,0,0,0,2-.81,3.18,3.18,0,0,0,.73-2.24v-4.44Z"/><path class="cls-8" d="M31,156.09A.86.86,0,0,1,31,155a.74.74,0,0,1,1.11,0,.78.78,0,0,1,.23.55.84.84,0,0,1-.23.59.71.71,0,0,1-.56.24A.74.74,0,0,1,31,156.09Zm0,2.08h1.11v8.42H31.05Z"/><path class="cls-8" d="M39.35,166.07a2.06,2.06,0,0,1-.75.45,2.72,2.72,0,0,1-.94.15,2.27,2.27,0,0,1-1.73-.64,2.51,2.51,0,0,1-.61-1.81v-5.09H33.89v-1h1.43v-1.84H36.4v1.84h2.43v1H36.4v5a1.64,1.64,0,0,0,.36,1.15,1.26,1.26,0,0,0,1,.39,1.81,1.81,0,0,0,.65-.11,1.49,1.49,0,0,0,.54-.32Z"/><path class="cls-8" d="M41.29,156.09a.86.86,0,0,1,0-1.14.8.8,0,0,1,.57-.24.8.8,0,0,1,.79.79.84.84,0,0,1-.23.59.71.71,0,0,1-.56.24A.73.73,0,0,1,41.29,156.09Zm0,2.08h1.08v8.42H41.31Z"/><path class="cls-8" d="M52.14,158.17l-3.56,8.42H47.45l-3.54-8.42H45l3,7.17,3-7.17Z"/><path class="cls-8" d="M60.37,162.73H53.68a3.09,3.09,0,0,0,3.19,2.93,3.09,3.09,0,0,0,1.37-.28,2.9,2.9,0,0,0,1.07-.83l.61.74a3.28,3.28,0,0,1-1.33,1,4.07,4.07,0,0,1-1.75.36,4.17,4.17,0,0,1-2.18-.56,3.72,3.72,0,0,1-1.52-1.5,4.59,4.59,0,0,1-.53-2.21,4.77,4.77,0,0,1,.53-2.21,3.86,3.86,0,0,1,1.4-1.52,3.79,3.79,0,0,1,5.21,1.22l.16.29a4.66,4.66,0,0,1,.5,2.22Zm-5.8-2.87a3.15,3.15,0,0,0-.89,2h5.67a3.15,3.15,0,0,0-.89-2A2.83,2.83,0,0,0,54.57,159.86Z"/><path class="cls-8" d="M75.69,155.39v11.2H74.58v-5.17H67.92v5.17H66.8v-11.2h1.12v5h6.66v-5Z"/><path class="cls-8" d="M85.89,162.73H79.2a3.09,3.09,0,0,0,3.19,2.93,3.09,3.09,0,0,0,1.37-.28,2.93,2.93,0,0,0,1.08-.83l.6.74a3.28,3.28,0,0,1-1.33,1,4.07,4.07,0,0,1-1.75.36,4.17,4.17,0,0,1-2.18-.56,3.76,3.76,0,0,1-1.49-1.52,4.59,4.59,0,0,1-.53-2.21,4.75,4.75,0,0,1,.51-2.21,3.86,3.86,0,0,1,1.4-1.52,3.79,3.79,0,0,1,5.21,1.22l.16.29a4.66,4.66,0,0,1,.5,2.22Zm-5.75-2.87a3.15,3.15,0,0,0-.89,2h5.67a3.15,3.15,0,0,0-.89-2A2.83,2.83,0,0,0,80.14,159.86Z"/><path class="cls-8" d="M93.08,159a3.27,3.27,0,0,1,.83,2.44v5.22h-1v-1.36a2.46,2.46,0,0,1-1.07,1,3.5,3.5,0,0,1-1.68.37A3.21,3.21,0,0,1,88,166a2.4,2.4,0,0,1-.12-3.39l.12-.12a3.52,3.52,0,0,1,2.35-.66h2.46v-.51a2.2,2.2,0,0,0-.58-1.64,2.32,2.32,0,0,0-1.69-.58,4.53,4.53,0,0,0-1.46.26,4,4,0,0,0-1.2.73l-.49-.85a4.52,4.52,0,0,1,1.46-.84,5.8,5.8,0,0,1,1.8-.29A3.32,3.32,0,0,1,93.08,159Zm-1.22,6.4a2.57,2.57,0,0,0,1-1.27v-1.38H90.33c-1.37,0-2,.5-2,1.51a1.4,1.4,0,0,0,.53,1.16,2.26,2.26,0,0,0,1.49.42,2.65,2.65,0,0,0,1.51-.48Z"/><path class="cls-8" d="M96.85,154.71h1.08V166.6H96.85Z"/><path class="cls-8" d="M105.14,166.07a2.06,2.06,0,0,1-.75.45,2.72,2.72,0,0,1-.94.15,2.27,2.27,0,0,1-1.73-.64,2.51,2.51,0,0,1-.61-1.81v-5.09H99.68v-1h1.46v-1.84h1.08v1.84h2.43v1h-2.43v5a1.64,1.64,0,0,0,.36,1.15,1.26,1.26,0,0,0,1,.39,1.81,1.81,0,0,0,.65-.11,1.49,1.49,0,0,0,.54-.32Z"/><path class="cls-8" d="M113.61,159a3.72,3.72,0,0,1,.89,2.68v4.88h-1.08v-4.77a2.86,2.86,0,0,0-.63-2,2.3,2.3,0,0,0-1.77-.69,2.68,2.68,0,0,0-2,.81,3.14,3.14,0,0,0-.75,2.23v4.42h-1.13V154.71h1.08v4.93a3.06,3.06,0,0,1,1.21-1.13,3.9,3.9,0,0,1,1.78-.4A3.2,3.2,0,0,1,113.61,159Z"/><path class="cls-8" d="M123.41,166a5.13,5.13,0,0,1-2-2,6.28,6.28,0,0,1,0-5.84,5.33,5.33,0,0,1,2-2,5.73,5.73,0,0,1,2.86-.74,5.79,5.79,0,0,1,2.18.42,4.69,4.69,0,0,1,1.69,1.16l-.72.75a4.14,4.14,0,0,0-3.14-1.32,4.52,4.52,0,0,0-2.3.6,4.4,4.4,0,0,0-1.62,1.67,5.13,5.13,0,0,0,0,4.73,4.27,4.27,0,0,0,1.62,1.67,4.43,4.43,0,0,0,2.3.61,4,4,0,0,0,3.14-1.35l.72.76a4.52,4.52,0,0,1-1.71,1.22,5.76,5.76,0,0,1-5-.34Z"/><path class="cls-8" d="M133.14,166.11a3.69,3.69,0,0,1-1.46-1.52,4.79,4.79,0,0,1,0-4.42,3.81,3.81,0,0,1,1.46-1.52,4.33,4.33,0,0,1,4.16,0,3.79,3.79,0,0,1,1.45,1.52,4.85,4.85,0,0,1,0,4.42,3.66,3.66,0,0,1-1.45,1.52A4.13,4.13,0,0,1,133.14,166.11Zm3.61-.86a2.69,2.69,0,0,0,1-1.16,4,4,0,0,0,0-3.42,2.8,2.8,0,0,0-1-1.16,2.9,2.9,0,0,0-4,.94,2.53,2.53,0,0,0-.13.22,3.94,3.94,0,0,0,0,3.42,2.76,2.76,0,0,0,1.06,1.16A3,3,0,0,0,136.75,165.25Z"/><path class="cls-8" d="M148,159a3.72,3.72,0,0,1,.89,2.68v4.88H147.8v-4.77a2.9,2.9,0,0,0-.62-2,2.31,2.31,0,0,0-1.78-.69,2.72,2.72,0,0,0-2,.81,3.14,3.14,0,0,0-.75,2.23v4.42h-1.08v-8.42h1v1.55a3.2,3.2,0,0,1,1.23-1.19,3.91,3.91,0,0,1,1.81-.42A3.19,3.19,0,0,1,148,159Z"/><path class="cls-8" d="M152.14,166.37a3.89,3.89,0,0,1-1.39-.74l.49-.9a3.68,3.68,0,0,0,1.26.68,4.48,4.48,0,0,0,1.58.26,2.78,2.78,0,0,0,1.62-.36,1.11,1.11,0,0,0,.52-1,.92.92,0,0,0-.29-.73,2,2,0,0,0-.73-.4,11,11,0,0,0-1.17-.26,13.68,13.68,0,0,1-1.56-.39,2.23,2.23,0,0,1-1-.69,1.9,1.9,0,0,1-.42-1.32,2.14,2.14,0,0,1,.84-1.73,3.62,3.62,0,0,1,2.32-.67,6.8,6.8,0,0,1,1.55.21,4.91,4.91,0,0,1,1.28.57l-.47.92a3.85,3.85,0,0,0-2.36-.72,2.59,2.59,0,0,0-1.56.38,1.19,1.19,0,0,0-.52,1,1,1,0,0,0,.3.78,1.73,1.73,0,0,0,.73.42c.3.09.7.18,1.22.28a11.43,11.43,0,0,1,1.53.39,2.17,2.17,0,0,1,1,.66,1.78,1.78,0,0,1,.41,1.28,2.1,2.1,0,0,1-.87,1.75,3.94,3.94,0,0,1-2.43.64A5.49,5.49,0,0,1,152.14,166.37Z"/><path class="cls-8" d="M166.45,158.17v8.42h-1v-1.54a3,3,0,0,1-1.17,1.19,3.17,3.17,0,0,1-1.7.43,3.28,3.28,0,0,1-2.47-.92,3.69,3.69,0,0,1-.9-2.7v-4.88h1.08V163a2.87,2.87,0,0,0,.62,2,2.24,2.24,0,0,0,1.78.69,2.52,2.52,0,0,0,2-.81,3.18,3.18,0,0,0,.73-2.24v-4.44Z"/><path class="cls-8" d="M169.47,154.71h1.08V166.6h-1.08Z"/><path class="cls-8" d="M177.8,166.07a1.86,1.86,0,0,1-.75.45,2.67,2.67,0,0,1-.93.15,2.31,2.31,0,0,1-1.74-.64,2.54,2.54,0,0,1-.61-1.81v-5.09h-1.42v-1h1.42v-1.84h1.08v1.84h2.44v1h-2.44v5a1.64,1.64,0,0,0,.36,1.15,1.3,1.3,0,0,0,1,.39,1.76,1.76,0,0,0,.64-.11,1.49,1.49,0,0,0,.54-.32Z"/><path class="cls-8" d="M179.75,156.09a.81.81,0,0,1,0-1.14.78.78,0,0,1,1.09,0l0,0a.78.78,0,0,1,.23.55.84.84,0,0,1-.23.59.77.77,0,0,1-1.09,0Zm0,2.08h1.08v8.42h-1.08Z"/><path class="cls-8" d="M190.32,159a3.72,3.72,0,0,1,.89,2.68v4.88h-1.07v-4.77a2.9,2.9,0,0,0-.62-2,2.31,2.31,0,0,0-1.78-.69,2.7,2.7,0,0,0-2.05.81,3.14,3.14,0,0,0-.75,2.23v4.42h-1.08v-8.42h1v1.55a3.1,3.1,0,0,1,1.22-1.19,4,4,0,0,1,1.82-.42A3.17,3.17,0,0,1,190.32,159Z"/><path class="cls-8" d="M201.57,158.17v7.39a4.47,4.47,0,0,1-1,3.18,3.94,3.94,0,0,1-3,1,6.06,6.06,0,0,1-2.11-.34,4.2,4.2,0,0,1-1.62-1l.55-.86a4,4,0,0,0,1.41.85,4.72,4.72,0,0,0,1.74.3,3,3,0,0,0,2.23-.74,3.2,3.2,0,0,0,.72-2.31v-1.08a3.3,3.3,0,0,1-1.32,1.22,3.75,3.75,0,0,1-1.8.42,4.11,4.11,0,0,1-2-.52,3.7,3.7,0,0,1-1.45-1.46,4.58,4.58,0,0,1,0-4.23,3.76,3.76,0,0,1,1.44-1.44,4.18,4.18,0,0,1,2-.51,3.92,3.92,0,0,1,1.84.43,3.31,3.31,0,0,1,1.32,1.25v-1.55Zm-2.52,6.7a2.69,2.69,0,0,0,1.09-1.1,3.46,3.46,0,0,0,0-3.19,2.83,2.83,0,0,0-1.08-1.09,3.29,3.29,0,0,0-1.57-.39,3.39,3.39,0,0,0-1.56.38,2.83,2.83,0,0,0-1.08,1.09,3.48,3.48,0,0,0,0,3.2,2.66,2.66,0,0,0,1.08,1.1,3.32,3.32,0,0,0,3.12,0Z"/></g></g></g></g></svg>