<svg xmlns="http://www.w3.org/2000/svg" viewBox="0 0 111.89 93.64"><defs><style>.cls-1{fill:#e2dfc1;}.cls-2,.cls-4{fill:none;}.cls-3{fill:#075480;}.cls-4{stroke:#075480;stroke-miterlimit:10;}</style></defs><g id="Layer_2" data-name="Layer 2"><g id="Layer_1-2" data-name="Layer 1"><g id="Layer_2-2" data-name="Layer 2"><g id="Layer_1-2-2" data-name="Layer 1-2"><path class="cls-1" d="M77.74,51.78c-7.58-5.61-1-4.59-4.12-11.42l-4.06-1.75c1,2.1,1.41,5.6-.34,7.29A8.73,8.73,0,0,0,59.1,44.83c-1.59-3.07-5.67-1.19-8.08-.54-.7-.19-.94-1.64-1.51-2.07a5.67,5.67,0,0,0-5.4-1.11L41.74,45c4.13-2.28,4.14,3.05,7.18,3.61,2.24,1.57-4,5.72-1.18,8.73,5,4.52.47,6.37,1.75,10,5.89,14.6-7.45,13.7-13,10.93-.14.72-1-.8-.4,1.73,3.79,2.53,5.27,3.17,11.17,4.22,4.62,4.93,26.83,8,28.89,5.27.93-1.25,1.47-.27,1.47-.27-18.57-2.61-15.9-5.2-14.9-21.13-.11-1.58-3.54-4.82-4.5-6.26-3-4.25-4.67-13.37,1.25-13.25,3.38.23,5-2.75,9,2.88,2,1.32,3.61,0,5.62,3"/><path class="cls-1" d="M42.1,42.64s.17,7.57-3.58,7.73-9.45-1.79-9.45-1.79a6.55,6.55,0,0,1-8.63.82c-5-3.26-2.77-7.74.81-9a3.58,3.58,0,0,0-.49-1.8,14.84,14.84,0,0,1-3.9,2c-2.12.65-9-.25-10.27-5.3C4,36.12-.09,36.44.4,30.09s5.54-4.23,5.54-4.23S3.74,16,10.56,15.68s4.16,0,4.16,0,1.87-2.85,3.91-3.26c-1.27-1.26-2.2-5.7,1.38-7s4.55,1.13,4.55,1.13,4-3.74,6.11-2.44,3.66,2.61,3.83,3.42a7.08,7.08,0,0,1,3.42.16S40.31,2,44.06,2.81a15.77,15.77,0,0,1,5.5,2.08S52.77-.32,56.76.53a12.49,12.49,0,0,1,6.11,3.34c2,.16,5-1.14,7.74,4.15,1.47-2.44.26-2,2.28-3.09,2.2-1.14,6.19-1.39,8.06,3.66,1.87-.88,4.57-1.47,6.68,1a6.69,6.69,0,0,1,1.14,5.78s5.3-1.3,7.58,2,1.46,4.15,1.46,4.15,3.1-1.59,7.25,2c2.77,2.37,2.12,8.8,2.12,8.8a5.34,5.34,0,0,1,4,5.62c-.16,4.72-1.3,8.39-5.7,8,.73,2.85-.24,6-3.26,6.6a16.92,16.92,0,0,0-4.56,1.79s1.22-.65,5.78,1.14,3.29,8.2.09,8.88a10.4,10.4,0,0,1-5.62-.73s-3.59,4.23-6.28,3.82c-4.14-.62-5.84-2.55-5.84-2.55s-6.94,2-8.16-3.72c-1,.08-1.31.57-2.94-1.22s-3-5.86,2.36-6.35a7.57,7.57,0,0,1,3.59-6.68c.73-.49-.46,1.12-3.1-2.77a6.15,6.15,0,0,1-.89-5s-.49,1.06-2.61,1.06c-3.52,0-2.28-.41-4.07-1.47-6,6.36-12.22,2.61-13-.16-1.55.65-2.61,3.1-6.19,1.79s-3.1-3.58-3.1-3.58a27.05,27.05,0,0,1-3.66,2C43,42.88,42.1,42.64,42.1,42.64Z"/><path class="cls-2" d="M49.21,36.17c.51-11.93-20.34-22.9-21.86-12.59-3.46-1.2-9.27-1.35-9.93,3.23a2.86,2.86,0,0,1-1.2,2.74c-4.76,4.22.25,9.26,5.34,8.42Z"/><path class="cls-2" d="M18.39,12.82c-2.74-3.12-.44-6.23,1.5-7.2,2.6-1.3,4.07-1.14,5,1.06.75-2.36,3-2.56,5.3-2.36a5.25,5.25,0,0,1,4.57,5.45q-3.81,9-7.63,17.93c-1.35,0-11.11-5.47-12.65-7.93-.52-.85.61-4,1.9-5.76.73-1,1.44-.76,2-1.19"/><path class="cls-2" d="M14.89,15.53c4.37-3.53,11-.77,10,7.7,2.13.25,4.11-1.12,5.51.91s3.84,6.36,2.74,8.42-5.62,3.86-7.34,2.22c.09,4-6.73,5-6.1,4-1.85,2.88-10.64,2-12.38-4.12l-2.23.86c-6.38,1.54-6.21-11.17.49-10.42a7.6,7.6,0,0,1,4.93-9.55,7.73,7.73,0,0,1,3.76-.22"/><path class="cls-3" d="M60.2,90.5a2.36,2.36,0,0,1,.07-.44,3.33,3.33,0,0,1,.16-.51,4.18,4.18,0,0,1,.48-.91,5,5,0,0,1,1.6-1.41.48.48,0,0,0,.18-.66v0a.51.51,0,0,0-.68-.18A5.33,5.33,0,0,0,59.2,90.5a.5.5,0,0,0,.5.5.51.51,0,0,0,.5-.5Z"/><path class="cls-3" d="M73.69,89a6.14,6.14,0,0,1,.69,3.39.5.5,0,0,0,.53.49.47.47,0,0,0,.33-.14,4.87,4.87,0,0,0,1.24-4.08l-.92.38a4.74,4.74,0,0,1,.69,3.66.52.52,0,0,0,.36.64.53.53,0,0,0,.64-.37,5.76,5.76,0,0,0-.78-4.43.51.51,0,0,0-.71-.12.48.48,0,0,0-.21.5,3.85,3.85,0,0,1-1,3.11l.85.36a7.07,7.07,0,0,0-.83-3.9.51.51,0,0,0-.69-.16.49.49,0,0,0-.17.67Z"/><path class="cls-3" d="M78.09,88.75c-.15-.12,0,0,0,0s-.06-.11,0,0l.07.12s.08.18,0,.1,0,.07,0,.09l.06.17a1.86,1.86,0,0,0,.1.39c.07.29.12.58.17.87l.06.41V91h0v.25c.06.52.11,1,.2,1.56a1.49,1.49,0,0,0,.13.47.55.55,0,0,0,.74.23l.12-.09a1.13,1.13,0,0,0,.26-.59c.08-.36.13-.73.18-1.1L80,92a4.54,4.54,0,0,0,2-3.62l-.85.36A3.33,3.33,0,0,1,82,92.46a.5.5,0,0,0,.18.69.5.5,0,0,0,.68-.18,4.36,4.36,0,0,0-1-4.9.51.51,0,0,0-.72,0,.43.43,0,0,0-.14.32,3.16,3.16,0,0,1-.46,1.65,3.61,3.61,0,0,1-.55.72c-.24.25-.64.44-.69.81s-.1.7-.18,1.05a.28.28,0,0,0,0,.13v.06c0,.06.05-.1,0-.06s.07-.07.09-.09a.49.49,0,0,1,.67.1h0v-.11a1.22,1.22,0,0,1,0-.27.49.49,0,0,1,0-.17h0v-.56c-.09-.71-.17-1.42-.31-2.12a2.91,2.91,0,0,0-.84-1.79A.51.51,0,0,0,78,88a.5.5,0,0,0,.18.69Z"/><path class="cls-3" d="M82.81,92.54a4.42,4.42,0,0,1,1.8-3.71.5.5,0,0,0-.71-.71,5.29,5.29,0,0,0-2.09,4.42.5.5,0,0,0,.5.5A.5.5,0,0,0,82.81,92.54Z"/><path class="cls-3" d="M42.27,45.22a1.71,1.71,0,0,1,2.06-.14,7.69,7.69,0,0,1,1.41,1.75,6.22,6.22,0,0,0,1.61,1.78c.45.31,1.3.28,1.29.94a4.61,4.61,0,0,1-.84,1.92,17.37,17.37,0,0,0-1.24,2.38,4,4,0,0,0-.24,2.41,5.77,5.77,0,0,0,2,2.5A6.07,6.07,0,0,1,49.82,61a3.08,3.08,0,0,1-.08,1.73c-.22.81-.5,1.61-.68,2.43a14.06,14.06,0,0,0-.29,1.68,1.76,1.76,0,0,0,0,.79c.14.42.36.83.52,1.24,1.18,3,2.46,7.9-1.15,9.85a9.87,9.87,0,0,1-5.35.83A27.19,27.19,0,0,1,36,78.09c-.62-.2-.88.77-.27,1a30,30,0,0,0,6.49,1.42A12.43,12.43,0,0,0,47.66,80,5.56,5.56,0,0,0,51,77a9.47,9.47,0,0,0,0-6c-.17-.64-.36-1.27-.59-1.9A5.82,5.82,0,0,1,49.69,67a15.55,15.55,0,0,1,.69-3.15c.46-1.51.73-2.82-.2-4.22a10.38,10.38,0,0,0-.93-1.17c-.51-.55-1.15-1-1.62-1.6a2.42,2.42,0,0,1-.25-2.47,13.69,13.69,0,0,1,1.28-2.46,5.41,5.41,0,0,0,.91-2.25,1.56,1.56,0,0,0-.26-1c-.29-.43-.64-.45-1.1-.63a4.67,4.67,0,0,1-1.86-1.93,6.15,6.15,0,0,0-1.8-2,2.77,2.77,0,0,0-2.85.29.51.51,0,0,0-.17.69.5.5,0,0,0,.68.17Z"/><path class="cls-3" d="M77.86,88.65a81.05,81.05,0,0,1-8.74-1.93,13,13,0,0,1-4.8-2.25c-2.42-2.08-2.12-5.62-1.94-8.5.07-1.21.18-2.41.27-3.62.06-.65.11-1.31.16-2S63,68.8,63,68c0-1.2-1.11-2.35-1.82-3.22-.88-1.08-1.89-2.07-2.7-3.21a15,15,0,0,1-2.66-7.24c-.19-2,.08-4.73,2.44-5.25A13.63,13.63,0,0,1,60,49a9.1,9.1,0,0,0,1.55-.25,5.54,5.54,0,0,1,2.74-.22,4.25,4.25,0,0,1,1.57.93,10.31,10.31,0,0,1,.87.88c.37.42.67.94,1.06,1.35.9.94,2.48.79,3.62,1.23a4.54,4.54,0,0,1,2,1.73c.36.53,1.23,0,.86-.5a5.93,5.93,0,0,0-1.94-1.92,6.72,6.72,0,0,0-1.91-.59,3.61,3.61,0,0,1-1.9-.7c-.36-.35-.64-.84-1-1.22a12.51,12.51,0,0,0-.93-1,4.71,4.71,0,0,0-3.27-1.33c-1,0-2,.43-3,.56-1.21.14-2.35-.07-3.46.58a4.2,4.2,0,0,0-1.84,2.54c-.72,2.56,0,5.52.94,7.92a14.19,14.19,0,0,0,1.86,3.37c.92,1.2,2,2.28,2.93,3.48a8.71,8.71,0,0,1,1.11,1.72,5.1,5.1,0,0,1,0,2.06c-.1,1.4-.22,2.8-.33,4.2a37.32,37.32,0,0,0-.19,6.25,7.47,7.47,0,0,0,1.47,4.17A9.25,9.25,0,0,0,67,87a45.89,45.89,0,0,0,8,2.08l2.68.5c.63.12.9-.84.27-1Z"/><path class="cls-3" d="M43.71,41.23a5.84,5.84,0,0,0,2,.05,2.81,2.81,0,0,1,1.52.09A4.83,4.83,0,0,1,49,43.17c.37.57.8,1.35,1.49,1.59s1.42-.27,1.94-.43a20.24,20.24,0,0,1,2.2-.56c1.49-.27,3-.1,3.76,1.34a.48.48,0,0,0,.66.19h0a8.3,8.3,0,0,1,9.52,1,.5.5,0,0,0,.7,0c2-2,1.5-5.53.42-7.9-.26-.58-1.13-.07-.86.51.89,1.94,1.39,5-.26,6.68h.7a9.31,9.31,0,0,0-10.75-1.15l.68.18c-1.71-3.15-5.57-1.68-8.22-.9-.38.11-.43,0-.71-.37s-.46-.71-.71-1.06a5.74,5.74,0,0,0-1.89-1.78c-1.2-.59-2.47,0-3.72-.23-.63-.12-.9.84-.27,1Z"/><path class="cls-3" d="M72.92,40.64a7.08,7.08,0,0,1,.53,5.15,4.36,4.36,0,0,0-.3,1.59,3.15,3.15,0,0,0,.77,1.89,15.9,15.9,0,0,0,3.29,3c.52.38,1-.48.51-.87a14.91,14.91,0,0,1-2.94-2.61,2.48,2.48,0,0,1-.64-1.53,5.64,5.64,0,0,1,.35-1.43,6.68,6.68,0,0,0,.28-2.09,9.78,9.78,0,0,0-1-3.58c-.27-.59-1.13-.08-.86.5Z"/><path class="cls-4" d="M51.91,55.69a6.15,6.15,0,0,0,3.26-.28"/><path class="cls-4" d="M52.23,58a6.33,6.33,0,0,0,3.58-.22"/><path class="cls-4" d="M52.83,60.34A12,12,0,0,0,56.26,60"/><path class="cls-4" d="M57.26,66.85c1.29.29,2.71,1,4.75.29"/><path class="cls-4" d="M57.34,69.07a5.82,5.82,0,0,0,4.83.19"/><path class="cls-4" d="M57.72,71.57a5,5,0,0,0,4.21.3"/><path class="cls-3" d="M31.44,76.66l.17.32h0l.05.17a1.67,1.67,0,0,0,.08.3v.23a1.82,1.82,0,0,1,0,.33v.21a4.28,4.28,0,0,1-.16.64.51.51,0,0,0,.37.63.51.51,0,0,0,.63-.37,3.59,3.59,0,0,0-.28-3,.53.53,0,0,0-.69-.18.51.51,0,0,0-.18.68Z"/><path class="cls-3" d="M33.56,76.69a6,6,0,0,1-.48,3.42.51.51,0,0,0,.37.62.49.49,0,0,0,.37,0,4.83,4.83,0,0,0,2.46-3.33h-1A4.8,4.8,0,0,1,34.69,81a.5.5,0,0,0,.25.67.5.5,0,0,0,.61-.17,5.76,5.76,0,0,0,.69-4.44.51.51,0,0,0-.5-.5.5.5,0,0,0-.5.5,3.86,3.86,0,0,1-2,2.72l.74.57a7.1,7.1,0,0,0,.48-4,.53.53,0,0,0-.64-.36.51.51,0,0,0-.36.63Z"/><path class="cls-3" d="M44.56,82.45c0,.12.08.24.11.35v.53h0v.21c0,.17-.08.34-.13.5-.18.62-.45,1.22-.64,1.83a.52.52,0,0,0,.36.64.53.53,0,0,0,.64-.37c.2-.66.48-1.28.67-1.94a3.13,3.13,0,0,0,0-2,.53.53,0,0,0-.64-.36.51.51,0,0,0-.36.63Z"/><path class="cls-3" d="M47.16,86.89a4.47,4.47,0,0,0,2.4-3.18l-.83.22a3.35,3.35,0,0,1,.18,3.79c-.34.54.52,1,.86.5a4.37,4.37,0,0,0-.33-5,.5.5,0,0,0-.71,0,.5.5,0,0,0-.13.22,3.51,3.51,0,0,1-2,2.57c-.57.3-.07,1.16.5.87Z"/><path class="cls-3" d="M51.22,88.15a1,1,0,0,1,.08-.44,4.91,4.91,0,0,1,.15-.51,4.22,4.22,0,0,1,.49-.91,4.83,4.83,0,0,1,1.6-1.41.52.52,0,0,0,.18-.69A.51.51,0,0,0,53,84a5.42,5.42,0,0,0-2.82,4.14.5.5,0,0,0,.5.5.5.5,0,0,0,.5-.5Z"/><path class="cls-3" d="M54.92,85.52a3.14,3.14,0,0,1,.81,3,.49.49,0,0,0,.36.61.45.45,0,0,0,.37,0A4.48,4.48,0,0,0,58.88,86l-.83.22A3.33,3.33,0,0,1,58.23,90c-.34.55.52,1,.86.51a4.37,4.37,0,0,0-.34-5,.51.51,0,0,0-.71,0,.5.5,0,0,0-.12.21,3.55,3.55,0,0,1-2,2.58l.74.56a4.14,4.14,0,0,0-1.06-4c-.45-.47-1.16.24-.71.7Z"/><path class="cls-3" d="M61.27,88.8c.06.11.12.22.17.33h0l.06.17a1.67,1.67,0,0,0,.08.3v.23a1.82,1.82,0,0,1,0,.33v.21a4.28,4.28,0,0,1-.16.64.49.49,0,0,0,.35.61.49.49,0,0,0,.61-.34,3.63,3.63,0,0,0-.28-3,.53.53,0,0,0-.69-.18.5.5,0,0,0-.18.68Z"/><path class="cls-3" d="M63.56,87.2a6.16,6.16,0,0,1-.48,3.42.47.47,0,0,0,.18.53.5.5,0,0,0,.55,0,4.82,4.82,0,0,0,2.47-3.33h-1a4.8,4.8,0,0,1-.59,3.68.5.5,0,0,0,.25.67.5.5,0,0,0,.61-.17,5.76,5.76,0,0,0,.69-4.44.53.53,0,0,0-1,0,3.91,3.91,0,0,1-2,2.73l.73.56a6.93,6.93,0,0,0,.48-4,.53.53,0,0,0-.63-.37.51.51,0,0,0-.37.63Z"/><path class="cls-3" d="M66,89.32a3.1,3.1,0,0,1,1.39,2.84.48.48,0,0,0,.31.45.51.51,0,0,0,.55-.1A4.49,4.49,0,0,0,70,88.89l-.86.36a3.36,3.36,0,0,1,1,3.75.49.49,0,0,0,.34.62h0a.52.52,0,0,0,.62-.35,4.34,4.34,0,0,0-1.29-4.73c-.3-.26-.88-.11-.85.35a3.55,3.55,0,0,1-1.39,2.91l.85.36a4.11,4.11,0,0,0-1.88-3.7.51.51,0,0,0-.53.86h0Z"/><path class="cls-3" d="M72.46,92.36a2.79,2.79,0,0,1,.1-.39,3.33,3.33,0,0,1,.16-.51,4.22,4.22,0,0,1,.49-.91,4.89,4.89,0,0,1,1.59-1.41.48.48,0,0,0,.18-.66v0a.51.51,0,0,0-.68-.18,5.39,5.39,0,0,0-2.81,4.13.5.5,0,0,0,.5.5.51.51,0,0,0,.5-.5Z"/><path class="cls-3" d="M41.27,80.34c-1.46.34-2.23,2.12-2.47,3.45l.92-.12a.83.83,0,0,1-.14-.22v-.19a3.77,3.77,0,0,1-.18-.68A9.11,9.11,0,0,1,39.2,81a14.41,14.41,0,0,1,0-1.61,2.92,2.92,0,0,1,.16-1.05.5.5,0,0,0-.36-.61.57.57,0,0,0-.26,0,3.81,3.81,0,0,0-1.93,2.56,7.8,7.8,0,0,0-.49,3.24.5.5,0,0,0,.5.5.5.5,0,0,0,.5-.5,6.88,6.88,0,0,1,.39-2.77,6.29,6.29,0,0,1,.59-1.36,2.21,2.21,0,0,1,.26-.44,1.2,1.2,0,0,1,.34-.23l-.62-.61a4.46,4.46,0,0,0-.19,1.25,12.63,12.63,0,0,0,0,1.74,12,12,0,0,0,.23,1.8,3.17,3.17,0,0,0,.49,1.29c.23.31.83.35.92-.12a5,5,0,0,1,.58-1.66,2,2,0,0,1,1.25-1.12c.63-.15.37-1.11-.26-1Z"/><path class="cls-3" d="M42.23,85a2.78,2.78,0,0,0-.14-.53c0-.18,0-.15,0-.23v-.43h0a1.38,1.38,0,0,1,.12-.4h0v-.11l.12-.22c.1-.16.2-.32.32-.48a13,13,0,0,1,1-1.28.49.49,0,0,0-.16-.67h0a.52.52,0,0,0-.69.18,9.57,9.57,0,0,0-1.57,2.37,3.19,3.19,0,0,0,.08,2.09.52.52,0,0,0,.63.37A.52.52,0,0,0,42.3,85Z"/><path class="cls-3" d="M45.92,24.08c.32-3.77-2.4-6.48-5.82-7.49a12.12,12.12,0,0,0-10.49,1.55,7.3,7.3,0,0,0-2.88,5.14l.93-.25c-2.38-4.18-8.24-2.26-10.23,1.25A6.1,6.1,0,0,0,16.66,28l.14-.35a5.54,5.54,0,0,0-1.66,6,5.3,5.3,0,0,0,4.19,4c.63.08.63-.92,0-1-1.65-.21-2.81-1.8-3.25-3.28a4.62,4.62,0,0,1,1.24-4.85c.38-.35.31-.58.29-1.07a5.06,5.06,0,0,1,.15-1.34,5.45,5.45,0,0,1,1-2.07,6.52,6.52,0,0,1,3.87-2.33,3.82,3.82,0,0,1,4.14,1.83.49.49,0,0,0,.68.18.5.5,0,0,0,.25-.44c.73-6.9,11.24-7.95,15.52-3.84a5.62,5.62,0,0,1,1.67,4.64c-.06.64,1,.63,1,0Z"/><path class="cls-3" d="M18.39,21.19a4.2,4.2,0,0,1-2.65-4.85C16,14.69,17,12.69,19,12.88c.55,0,.69-.9.13-1-2-.3-1.11-3.45-.49-4.59A3.23,3.23,0,0,1,24.26,7a.49.49,0,0,0,.86,0c1.89-3.86,7.42-2.74,9.06.75.27.59,1.13.08.86-.5C33.09,3,26.46,2,24.26,6.43h.86A4.15,4.15,0,0,0,20.94,4.5a4.08,4.08,0,0,0-3.13,2.2c-1,1.68-1.84,5.75,1,6.16l.14-1c-2.44-.24-3.92,2.22-4.21,4.33a5.18,5.18,0,0,0,3.36,5.94c.62.2.88-.77.27-1Z"/><path class="cls-3" d="M40.63,40.82a6.88,6.88,0,0,1,.39,6A5.06,5.06,0,0,1,35.3,50a16.48,16.48,0,0,1-6.85-3c-.54-.36-1,.51-.51.87,3.06,2,7.59,4.51,11.27,2.55,2.3-1.23,3.32-4,3.28-6.45a6.74,6.74,0,0,0-1-3.63C41.13,39.78,40.27,40.31,40.63,40.82Z"/><path class="cls-3" d="M29.5,19C27,14.09,32.2,8.47,37,8c.63-.06.64-1.06,0-1-5.58.51-11.22,6.84-8.37,12.44C28.93,20,29.79,19.54,29.5,19Z"/><path class="cls-3" d="M38.37,9.38C38,3.71,45.37,2.23,49.18,5a.51.51,0,0,0,.69-.18C52.19,0,59.62-.4,62.32,4.31a.5.5,0,0,0,.57.23c5.39-1,9.85,5.21,7.15,10a.5.5,0,1,0,.87.5,7.66,7.66,0,0,0-.59-8.29,7.87,7.87,0,0,0-7.7-3.18l.57.23c-3-5.31-11.53-5-14.19.54l.69-.18C45.28,1,36.9,3,37.37,9.38A.5.5,0,0,0,38.37,9.38Z"/><path class="cls-3" d="M71.69,11.25A4.34,4.34,0,0,1,75,12.78a7.76,7.76,0,0,1,1.75,4.76.5.5,0,0,0,1,0,8.9,8.9,0,0,0-2-5.47,5.41,5.41,0,0,0-4-1.82.5.5,0,0,0-.5.5.5.5,0,0,0,.5.5Z"/><path class="cls-3" d="M76.2,23C75,17.47,82.56,13,87,16c.53.37,1-.5.51-.86-4.09-2.85-10.11-.16-11.92,4.15a6.4,6.4,0,0,0-.34,3.91c.14.63,1.1.36,1-.26Z"/><path class="cls-3" d="M85,19c2.5-4,10.52-5,12.08.31a.51.51,0,0,0,.63.37.52.52,0,0,0,.37-.63c-1.42-4.83-7.41-5.3-11.22-3.1a7.7,7.7,0,0,0-2.69,2.54c-.34.55.52,1,.86.51Z"/><path class="cls-3" d="M97.75,22.08a7.66,7.66,0,0,1,8,3,7.15,7.15,0,0,1,1.38,4.32A8.34,8.34,0,0,1,105,34.48c-.41.49.3,1.2.71.71a8.8,8.8,0,0,0,1.93-8.57A9.06,9.06,0,0,0,102,21.21a8,8,0,0,0-4.56-.13.51.51,0,0,0-.37.63.51.51,0,0,0,.63.37Z"/><path class="cls-3" d="M107.47,32.65c2.63,1,3.57,3.65,3.41,6.25-.14,2.18-1,5-2.93,6.27a2.23,2.23,0,0,1-2.76-.14c-.45-.34-1,.43-.61.78a2.7,2.7,0,0,1,1.19,2.24,3.65,3.65,0,0,1-1.09,2.19,6,6,0,0,1-5.24,1.95,3.65,3.65,0,0,1-2.56-2.1c-.29-.58-1.15-.07-.87.5A4.91,4.91,0,0,0,102.19,53c2-.65,4.25-2.34,4.55-4.6a3.6,3.6,0,0,0-1.45-3.24l-.61.79c2.29,1.73,4.67-.11,5.83-2.21a10.31,10.31,0,0,0,.8-8.59,6,6,0,0,0-3.57-3.4c-.61-.23-.87.74-.27,1Z"/><path class="cls-3" d="M75.9,39.79c-.34,3.27,1.89,5.88,4.62,7.36.56.31,1.07-.56.5-.86a8.57,8.57,0,0,1-3.29-2.89,5.58,5.58,0,0,1-.83-3.61.5.5,0,1,0-1,0Z"/><path class="cls-3" d="M88.32,47.78a6.51,6.51,0,0,0-6-1.87,7.11,7.11,0,0,0-5.57,7.45l.5-.5A4.68,4.68,0,0,0,73.61,54a3.84,3.84,0,0,0-1,3,4.63,4.63,0,0,0,4.73,4.31,9.36,9.36,0,0,0,5.6-2.58c.49-.41-.22-1.12-.71-.71-1.86,1.56-5,3.36-7.27,1.53A3.42,3.42,0,0,1,74.1,55a3.56,3.56,0,0,1,3.15-1.09.5.5,0,0,0,.5-.5,6.2,6.2,0,0,1,3.31-5.94,5.52,5.52,0,0,1,6.55,1.06.49.49,0,0,0,.7,0,.51.51,0,0,0,0-.66Z"/><path class="cls-3" d="M98.85,54.65c2.73,0,6.14,1,6.89,4a4.24,4.24,0,0,1-2.81,5,7.26,7.26,0,0,1-5-.46.49.49,0,0,0-.49.13c-1.47,1.56-3.32,3.13-5.58,3.2s-4.08-1.26-5.65-2.63a.53.53,0,0,0-.61-.07c-2.69,1.46-6.58.5-7.51-2.63a.53.53,0,0,0-.63-.37.51.51,0,0,0-.37.63c1.12,3.77,5.71,5,9,3.23l-.61-.08c1.77,1.54,3.92,3,6.36,2.92s4.63-1.73,6.29-3.5l-.49.13c2.84,1.16,6.47,1.15,8.33-1.67a5.33,5.33,0,0,0-1.2-7,9.7,9.7,0,0,0-6-1.83.5.5,0,0,0-.5.5.5.5,0,0,0,.5.5Z"/><path class="cls-3" d="M86.16,51.16a6.81,6.81,0,0,1,7.63-.71,6.59,6.59,0,0,1,3.6,6.7c-.09.63.91.63,1,0,.66-5.08-4.25-9.18-9.14-8.47a7.59,7.59,0,0,0-3.8,1.77c-.49.43.22,1.13.71.71Z"/><path class="cls-3" d="M47.56,28.63c1.57-1.34,2.45-3.27,3.5-5,.93-1.55,2.13-3.07,4.12-3a10.17,10.17,0,0,1,4.66,1.87c.55.35,1-.52.51-.86-2.13-1.35-5.07-2.86-7.54-1.45-1.8,1-2.72,3.13-3.73,4.84A10.9,10.9,0,0,1,46.8,28c-.49.42.22,1.12.71.71Z"/><path class="cls-3" d="M60.56,22.9a10.5,10.5,0,0,1,8.66-.72,6.24,6.24,0,0,1,4.34,6.29.5.5,0,0,0,1,0c.37-5.62-5.47-8.41-10.37-7.81A11.4,11.4,0,0,0,60,22a.51.51,0,0,0-.18.69.49.49,0,0,0,.69.18h.07Z"/><path class="cls-3" d="M75.67,28a8.1,8.1,0,0,1,3.62,3.83,5.3,5.3,0,0,1-.09,3.84,6,6,0,0,1-7.77,3.42,5.89,5.89,0,0,1-2.81-2.26c-.39-.51-1.1.2-.71.71a7.41,7.41,0,0,0,4.41,2.89,6.75,6.75,0,0,0,4.49-.75A6.9,6.9,0,0,0,80.4,32a8.71,8.71,0,0,0-4.23-4.89.5.5,0,0,0-.66.25.48.48,0,0,0,.16.61Z"/><path class="cls-3" d="M69.38,38.58c-3.32,4-9.29,3.43-12.69-.17-.44-.47-1.15.24-.7.71,3.74,4,10.44,4.6,14.09.17C70.49,38.8,69.79,38.08,69.38,38.58Z"/><path class="cls-3" d="M29.23,48.5a6.82,6.82,0,0,1-8.21.68c-1.79-1.21-3.46-3.55-2.7-5.77a4.64,4.64,0,0,1,3.37-2.59.49.49,0,0,0,.34-.61.56.56,0,0,0,0-.12c-1.21-1.81-.27-3.73,1.23-5s3.54-2.26,5.34-1.75a2.35,2.35,0,0,1,1.63,2.09c0,.37.55.73.85.35,1.67-2.11,4.44-2.46,6.9-1.75,2.21.64,4.62,2.22,5.17,4.6A4.5,4.5,0,0,1,42,42.49c-.41.49.3,1.2.71.71a5.72,5.72,0,0,0,1.51-4,5.94,5.94,0,0,0-1.64-3.56,9.65,9.65,0,0,0-8-2.89,6.4,6.4,0,0,0-4.23,2.32l.85.36a3.47,3.47,0,0,0-1.62-2.77,4.8,4.8,0,0,0-3.21-.28,8,8,0,0,0-5.64,4.41,4,4,0,0,0,.42,3.8l.3-.73a5.93,5.93,0,0,0-3.8,2.64,4.73,4.73,0,0,0-.17,3.81,7.83,7.83,0,0,0,6.8,5,8.28,8.28,0,0,0,5.67-2.07c.5-.41-.21-1.11-.7-.71Z"/><path class="cls-3" d="M71.79,7.1c1.83-4,8.13-2.35,8.7,1.67a.49.49,0,0,0,.61.35.31.31,0,0,0,.12,0,4.68,4.68,0,0,1,5.63.47c1.09.94,2.32,2.75,1.51,4.22-.31.56.55,1.07.86.5,1-1.88-.2-4.17-1.67-5.43a5.69,5.69,0,0,0-6.83-.63l.73.3c-.69-4.85-8.35-6.61-10.52-1.91-.27.58.59,1.09.86.51Z"/><path class="cls-3" d="M5.27,25.31l.08.65.93-.25c-1.25-2.46-1-6.15,1.22-8,1.85-1.55,4.82-1.94,7.15-1.62.63.09.9-.88.26-1-2.73-.37-6.08.07-8.22,2a7.12,7.12,0,0,0-2.07,4.22,8.08,8.08,0,0,0,.8,4.93c.21.42,1,.24.93-.26l-.08-.65c-.08-.63-1.08-.64-1,0Z"/><path class="cls-3" d="M7,34.72c-1.34.39-3,.88-4.29.11a4.07,4.07,0,0,1-1.62-3.22,6.46,6.46,0,0,1,.77-4.08A3.31,3.31,0,0,1,5.17,26c.63.13.9-.83.27-1-2.75-.6-4.9,1.78-5.31,4.3-.38,2.31,0,5.58,2.46,6.62,1.49.63,3.16.21,4.63-.22A.52.52,0,0,0,7.59,35,.53.53,0,0,0,7,34.67Z"/><path class="cls-3" d="M6.64,35.38c.48,3,3.22,4.82,6,5.4A9,9,0,0,0,21,38.53c.46-.45-.25-1.16-.71-.71a8,8,0,0,1-7.39,2c-2.47-.52-4.87-2-5.29-4.71-.1-.63-1.07-.36-1,.27Z"/><path class="cls-4" d="M47.9,25.58S42,25.41,42.56,32c.33,4.49,5.21,4.89,5.21,4.89.37,2.52,2,3.13,4.72,3.26,3.42.16,5.87-3.26,5.87-3.26"/><path class="cls-4" d="M43.36,38.65s2.86.23,3.77-1.82"/></g></g></g></g></svg>